<?xml version="1.0" encoding="UTF-8"?>
<svg width="216px" height="32px" viewBox="0 0 216 32" version="1.1" xmlns="http://www.w3.org/2000/svg" xmlns:xlink="http://www.w3.org/1999/xlink">
    <!-- Generator: Sketch 48 (47235) - http://www.bohemiancoding.com/sketch -->
    <title>Incremental.studio</title>
    <desc>Created with Sketch.</desc>
    <defs></defs>
    <g id="Desktop-HD-Copy" stroke="none" stroke-width="1" fill="none" fill-rule="evenodd" transform="translate(-100.000000, -24.000000)">
        <path d="M100,54.8 L100,24.52 L103.64,24.52 L103.64,54.8 L100,54.8 Z M115.92,54.8 C115.039996,51.866652 114.280003,49.3466772 113.64,47.24 C112.999997,45.1333228 112.460002,43.346674 112.02,41.88 C111.579998,40.413326 111.226668,39.213338 110.96,38.28 C110.693332,37.346662 110.473334,36.5866696 110.3,36 C110.126666,35.4133304 109.993334,34.953335 109.9,34.62 C109.806666,34.286665 109.733334,33.986668 109.68,33.72 L109.48,33.72 C109.506667,34.5733376 109.52,35.466662 109.52,36.4 L109.52,54.8 L106.28,54.8 L106.28,24.52 L110.36,24.52 C110.94667,26.7600112 111.453331,28.6733254 111.88,30.26 C112.306669,31.8466746 112.659999,33.1799946 112.94,34.26 C113.220001,35.3400054 113.446666,36.2066634 113.62,36.86 C113.793334,37.5133366 113.926666,38.0333314 114.02,38.42 C114.113334,38.8066686 114.18,39.099999 114.22,39.3 C114.26,39.500001 114.293333,39.6799992 114.32,39.84 L114.52,39.84 C114.493333,39.3333308 114.48,38.813336 114.48,38.28 L114.48,24.52 L117.76,24.52 L117.76,54.8 L115.92,54.8 Z M131.2,43.2 C131.253334,43.6533356 131.28,44.1066644 131.28,44.56 L131.28,45.92 C131.28,47.4933412 131.193334,48.8666608 131.02,50.04 C130.846666,51.2133392 130.553335,52.1933294 130.14,52.98 C129.726665,53.7666706 129.173337,54.3533314 128.48,54.74 C127.786663,55.1266686 126.906672,55.32 125.84,55.32 C124.42666,55.32 123.360004,55.1400018 122.64,54.78 C121.919996,54.4199982 121.373335,53.773338 121,52.84 C120.813332,52.4133312 120.653334,51.9066696 120.52,51.32 C120.386666,50.7333304 120.28,49.9466716 120.2,48.96 C120.12,47.9733284 120.06,46.7200076 120.02,45.2 C119.98,43.6799924 119.96,41.7466784 119.96,39.4 C119.96,36.7066532 119.993333,34.5666746 120.06,32.98 C120.126667,31.3933254 120.213333,30.1600044 120.32,29.28 C120.426667,28.3999956 120.546666,27.7733352 120.68,27.4 C120.813334,27.0266648 120.933333,26.706668 121.04,26.44 C121.413335,25.5599956 121.926663,24.9333352 122.58,24.56 C123.233337,24.1866648 124.26666,24 125.68,24 C126.666672,24 127.45333,24.0866658 128.04,24.26 C128.62667,24.4333342 129.133331,24.7333312 129.56,25.16 C130.093336,25.693336 130.506665,26.62666 130.8,27.96 C131.093335,29.29334 131.24,30.9466568 131.24,32.92 C131.24,33.453336 131.233333,33.919998 131.22,34.32 C131.206667,34.720002 131.186667,35.1466644 131.16,35.6 L127.8,35.6 C127.826667,35.1733312 127.84,34.8000016 127.84,34.48 L127.84,33 C127.84,31.7733272 127.793334,30.7866704 127.7,30.04 C127.606666,29.2933296 127.466668,28.7333352 127.28,28.36 C127.119999,28.0133316 126.920001,27.7866672 126.68,27.68 C126.439999,27.5733328 126.106669,27.52 125.68,27.52 C125.146664,27.52 124.760001,27.6133324 124.52,27.8 C124.279999,27.9866676 124.093334,28.3199976 123.96,28.8 C123.88,29.1200016 123.806667,29.4733314 123.74,29.86 C123.673333,30.2466686 123.62,30.8133296 123.58,31.56 C123.54,32.3066704 123.513333,33.2999938 123.5,34.54 C123.486667,35.7800062 123.48,37.3866568 123.48,39.36 C123.48,41.36001 123.486667,42.9999936 123.5,44.28 C123.513333,45.5600064 123.54,46.5866628 123.58,47.36 C123.62,48.1333372 123.673333,48.7333312 123.74,49.16 C123.806667,49.5866688 123.88,49.9599984 123.96,50.28 C124.093334,50.7333356 124.286665,51.059999 124.54,51.26 C124.793335,51.460001 125.226664,51.56 125.84,51.56 C126.320002,51.56 126.686665,51.4200014 126.94,51.14 C127.193335,50.8599986 127.386666,50.453336 127.52,49.92 C127.653334,49.386664 127.753333,48.7666702 127.82,48.06 C127.886667,47.3533298 127.92,46.533338 127.92,45.6 L127.92,44.36 C127.92,43.9866648 127.906667,43.600002 127.88,43.2 L131.2,43.2 Z M141.64,54.8 C141.56,54.6399992 141.493334,54.4733342 141.44,54.3 C141.386666,54.1266658 141.34,53.8800016 141.3,53.56 C141.26,53.2399984 141.22,52.8066694 141.18,52.26 C141.14,51.7133306 141.093334,50.9866712 141.04,50.08 C140.986666,49.0666616 140.926667,48.0466718 140.86,47.02 C140.793333,45.9933282 140.693334,44.9733384 140.56,43.96 C140.426666,43.1333292 140.246668,42.6000012 140.02,42.36 C139.793332,42.1199988 139.413336,42 138.88,42 L137.2,42 L137.2,54.8 L133.68,54.8 L133.68,24.52 L140.08,24.52 C141.013338,24.52 141.733331,24.6333322 142.24,24.86 C142.746669,25.0866678 143.186665,25.4399976 143.56,25.92 C143.800001,26.2400016 144.006666,26.5933314 144.18,26.98 C144.353334,27.3666686 144.493333,27.826664 144.6,28.36 C144.706667,28.893336 144.78,29.5133298 144.82,30.22 C144.86,30.9266702 144.88,31.746662 144.88,32.68 C144.88,33.6400048 144.866667,34.4466634 144.84,35.1 C144.813333,35.7533366 144.766667,36.313331 144.7,36.78 C144.633333,37.246669 144.56,37.6399984 144.48,37.96 C144.4,38.2800016 144.306667,38.573332 144.2,38.84 C144.013332,39.2933356 143.793335,39.6399988 143.54,39.88 C143.286665,40.1200012 143.013335,40.306666 142.72,40.44 L142.72,40.64 C142.986668,40.773334 143.246665,41.0199982 143.5,41.38 C143.753335,41.7400018 143.933333,42.3333292 144.04,43.16 C144.226668,44.5466736 144.379999,45.9533262 144.5,47.38 C144.620001,48.8066738 144.72,50.2933256 144.8,51.84 C144.853334,52.4533364 144.913333,52.9733312 144.98,53.4 C145.046667,53.8266688 145.146666,54.239998 145.28,54.64 L145.28,54.8 L141.64,54.8 Z M138.8,38.76 C139.280002,38.76 139.679998,38.693334 140,38.56 C140.320002,38.426666 140.586666,38.1333356 140.8,37.68 C140.906667,37.4666656 140.986666,37.2533344 141.04,37.04 C141.093334,36.8266656 141.14,36.5400018 141.18,36.18 C141.22,35.8199982 141.246667,35.3666694 141.26,34.82 C141.273333,34.2733306 141.28,33.5600044 141.28,32.68 C141.28,32.01333 141.273333,31.4600022 141.26,31.02 C141.246667,30.5799978 141.226667,30.2200014 141.2,29.94 C141.173333,29.6599986 141.126667,29.4333342 141.06,29.26 C140.993333,29.0866658 140.92,28.933334 140.84,28.8 C140.519998,28.2933308 140.053336,28.04 139.44,28.04 L137.2,28.04 L137.2,38.76 L138.8,38.76 Z M147.32,54.8 L147.32,24.52 L156.68,24.52 L156.68,28.12 L150.84,28.12 L150.84,37.64 L156.6,37.64 L156.6,41.08 L150.84,41.08 L150.84,51.04 L156.64,51.04 L156.64,54.8 L147.32,54.8 Z M172.6,54.8 L172.6,32.98 C172.6,32.2733298 172.613333,31.653336 172.64,31.12 L172.44,31.12 C172.413333,31.3066676 172.38,31.5266654 172.34,31.78 C172.3,32.0333346 172.233334,32.4533304 172.14,33.04 C172.046666,33.6266696 171.906668,34.4266616 171.72,35.44 C171.533332,36.4533384 171.286668,37.8066582 170.98,39.5 C170.673332,41.1933418 170.300002,43.2866542 169.86,45.78 C169.419998,48.2733458 168.880003,51.2799824 168.24,54.8 L166.56,54.8 L164.92,45.78 C164.466664,43.2866542 164.086668,41.1933418 163.78,39.5 C163.473332,37.8066582 163.226668,36.4466718 163.04,35.42 C162.853332,34.3933282 162.713334,33.5933362 162.62,33.02 C162.526666,32.4466638 162.46,32.0333346 162.42,31.78 C162.38,31.5266654 162.346667,31.3066676 162.32,31.12 L162.12,31.12 C162.146667,31.653336 162.16,32.2733298 162.16,32.98 L162.16,54.8 L159,54.8 L159,24.52 L164.68,24.52 C165.213336,27.986684 165.639998,30.7733228 165.96,32.88 C166.280002,34.9866772 166.533332,36.6533272 166.72,37.88 C166.906668,39.1066728 167.033333,40.0133304 167.1,40.6 C167.166667,41.1866696 167.226666,41.7066644 167.28,42.16 L167.48,42.16 C167.506667,41.7066644 167.56,41.1866696 167.64,40.6 C167.72,40.0133304 167.853332,39.1066728 168.04,37.88 C168.226668,36.6533272 168.486665,34.9866772 168.82,32.88 C169.153335,30.7733228 169.586664,27.986684 170.12,24.52 L175.76,24.52 L175.76,54.8 L172.6,54.8 Z M178.36,54.8 L178.36,24.52 L187.72,24.52 L187.72,28.12 L181.88,28.12 L181.88,37.64 L187.64,37.64 L187.64,41.08 L181.88,41.08 L181.88,51.04 L187.68,51.04 L187.68,54.8 L178.36,54.8 Z M199.72,54.8 C198.839996,51.866652 198.080003,49.3466772 197.44,47.24 C196.799997,45.1333228 196.260002,43.346674 195.82,41.88 C195.379998,40.413326 195.026668,39.213338 194.76,38.28 C194.493332,37.346662 194.273334,36.5866696 194.1,36 C193.926666,35.4133304 193.793334,34.953335 193.7,34.62 C193.606666,34.286665 193.533334,33.986668 193.48,33.72 L193.28,33.72 C193.306667,34.5733376 193.32,35.466662 193.32,36.4 L193.32,54.8 L190.08,54.8 L190.08,24.52 L194.16,24.52 C194.74667,26.7600112 195.253331,28.6733254 195.68,30.26 C196.106669,31.8466746 196.459999,33.1799946 196.74,34.26 C197.020001,35.3400054 197.246666,36.2066634 197.42,36.86 C197.593334,37.5133366 197.726666,38.0333314 197.82,38.42 C197.913334,38.8066686 197.98,39.099999 198.02,39.3 C198.06,39.500001 198.093333,39.6799992 198.12,39.84 L198.32,39.84 C198.293333,39.3333308 198.28,38.813336 198.28,38.28 L198.28,24.52 L201.56,24.52 L201.56,54.8 L199.72,54.8 Z M207.04,54.8 L207.04,28.12 L203.28,28.12 L203.28,24.52 L214.32,24.52 L214.32,28.12 L210.6,28.12 L210.6,54.8 L207.04,54.8 Z M223.6,54.8 L222.92,46.56 L219.68,46.56 L219,54.8 L215.44,54.8 L218.44,24.52 L224.44,24.52 L227.24,54.8 L223.6,54.8 Z M221.8,31.72 C221.746666,31.1066636 221.693334,30.5066696 221.64,29.92 C221.586666,29.3333304 221.533334,28.7333364 221.48,28.12 L221.2,28.12 C221.146666,28.7333364 221.093334,29.3333304 221.04,29.92 C220.986666,30.5066696 220.933334,31.1066636 220.88,31.72 L219.84,43.08 L222.76,43.08 L221.8,31.72 Z M229.2,54.8 L229.2,24.52 L232.72,24.52 L232.72,51.04 L238.12,51.04 L238.12,54.8 L229.2,54.8 Z M239.92,54.8 L239.92,49.76 L243.44,49.76 L243.44,54.8 L239.92,54.8 Z M248.88,44.68 C248.826666,44.9733348 248.793333,45.3066648 248.78,45.68 C248.766667,46.0533352 248.76,46.5199972 248.76,47.08 C248.76,48.2533392 248.786666,49.0999974 248.84,49.62 C248.893334,50.1400026 249.013332,50.5733316 249.2,50.92 C249.360001,51.2133348 249.546666,51.4199994 249.76,51.54 C249.973334,51.6600006 250.306664,51.72 250.76,51.72 C251.293336,51.72 251.673332,51.6600006 251.9,51.54 C252.126668,51.4199994 252.333332,51.1866684 252.52,50.84 C252.706668,50.4666648 252.826666,49.9866696 252.88,49.4 C252.933334,48.8133304 252.96,47.85334 252.96,46.52 L252.96,45.24 C252.96,44.8933316 252.946667,44.6066678 252.92,44.38 C252.893333,44.1533322 252.866667,43.9533342 252.84,43.78 C252.813333,43.6066658 252.773334,43.4133344 252.72,43.2 C252.613333,42.8266648 252.473334,42.5466676 252.3,42.36 C252.126666,42.1733324 251.840002,41.9333348 251.44,41.64 C251.119998,41.3999988 250.760002,41.1533346 250.36,40.9 C249.959998,40.6466654 249.560002,40.386668 249.16,40.12 C248.759998,39.853332 248.373335,39.5800014 248,39.3 C247.626665,39.0199986 247.306668,38.746668 247.04,38.48 C246.773332,38.213332 246.546668,37.913335 246.36,37.58 C246.173332,37.246665 246.026667,36.813336 245.92,36.28 C245.813333,35.746664 245.733334,35.0666708 245.68,34.24 C245.626666,33.4133292 245.6,32.3600064 245.6,31.08 C245.6,29.3999916 245.699999,28.1400042 245.9,27.3 C246.100001,26.4599958 246.439998,25.773336 246.92,25.24 C247.346669,24.7866644 247.839997,24.4666676 248.4,24.28 C248.960003,24.0933324 249.759995,24 250.8,24 C252.026673,24 252.95333,24.133332 253.58,24.4 C254.20667,24.666668 254.693332,25.0266644 255.04,25.48 C255.413335,25.9866692 255.666666,26.606663 255.8,27.34 C255.933334,28.073337 256,29.1199932 256,30.48 C256,31.3333376 255.98,32.0333306 255.94,32.58 C255.9,33.1266694 255.84,33.5733316 255.76,33.92 L252.76,33.92 C252.813334,33.653332 252.846667,33.3266686 252.86,32.94 C252.873333,32.5533314 252.88,32.0533364 252.88,31.44 C252.88,30.4266616 252.84,29.6733358 252.76,29.18 C252.68,28.6866642 252.533334,28.2933348 252.32,28 C252.159999,27.7866656 251.973334,27.646667 251.76,27.58 C251.546666,27.513333 251.226669,27.48 250.8,27.48 C250.373331,27.48 250.060001,27.5199996 249.86,27.6 C249.659999,27.6800004 249.480001,27.8399988 249.32,28.08 C249.133332,28.3733348 249.006667,28.7599976 248.94,29.24 C248.873333,29.7200024 248.84,30.493328 248.84,31.56 L248.84,33.06 C248.84,33.4466686 248.846667,33.7666654 248.86,34.02 C248.873333,34.2733346 248.9,34.4866658 248.94,34.66 C248.98,34.8333342 249.026666,35.0133324 249.08,35.2 C249.213334,35.5466684 249.346666,35.8066658 249.48,35.98 C249.613334,36.1533342 249.893331,36.3999984 250.32,36.72 C250.800002,37.0933352 251.379997,37.4666648 252.06,37.84 C252.740003,38.2133352 253.386664,38.6266644 254,39.08 C254.480002,39.4266684 254.833332,39.7133322 255.06,39.94 C255.286668,40.1666678 255.506666,40.4933312 255.72,40.92 C255.826667,41.1600012 255.92,41.3999988 256,41.64 C256.08,41.8800012 256.14,42.199998 256.18,42.6 C256.22,43.000002 256.246667,43.5133302 256.26,44.14 C256.273333,44.7666698 256.28,45.5733284 256.28,46.56 C256.28,47.6000052 256.253334,48.486663 256.2,49.22 C256.146666,49.953337 256.073334,50.5799974 255.98,51.1 C255.886666,51.6200026 255.773334,52.0599982 255.64,52.42 C255.506666,52.7800018 255.360001,53.1199984 255.2,53.44 C254.879998,54.0533364 254.373337,54.5199984 253.68,54.84 C252.986663,55.1600016 252.000006,55.32 250.72,55.32 C249.626661,55.32 248.76667,55.2000012 248.14,54.96 C247.51333,54.7199988 247.013335,54.2533368 246.64,53.56 C246.479999,53.2666652 246.333334,52.9600016 246.2,52.64 C246.066666,52.3199984 245.96,51.9466688 245.88,51.52 C245.8,51.0933312 245.74,50.5866696 245.7,50 C245.66,49.4133304 245.64,48.6933376 245.64,47.84 C245.64,47.1466632 245.66,46.5400026 245.7,46.02 C245.74,45.4999974 245.786666,45.0533352 245.84,44.68 L248.88,44.68 Z M261.44,54.8 L261.44,28.12 L257.68,28.12 L257.68,24.52 L268.72,24.52 L268.72,28.12 L265,28.12 L265,54.8 L261.44,54.8 Z M278.2,24.52 L281.72,24.52 L281.72,46.4 C281.72,47.4133384 281.713333,48.2666632 281.7,48.96 C281.686667,49.6533368 281.66,50.2533308 281.62,50.76 C281.58,51.2666692 281.506667,51.7066648 281.4,52.08 C281.293333,52.4533352 281.146668,52.8266648 280.96,53.2 C280.559998,54.000004 279.993337,54.5533318 279.26,54.86 C278.526663,55.1666682 277.45334,55.32 276.04,55.32 C274.599993,55.32 273.513337,55.1666682 272.78,54.86 C272.046663,54.5533318 271.480002,54.000004 271.08,53.2 C270.893332,52.8266648 270.746667,52.4533352 270.64,52.08 C270.533333,51.7066648 270.453334,51.2666692 270.4,50.76 C270.346666,50.2533308 270.313333,49.6533368 270.3,48.96 C270.286667,48.2666632 270.28,47.4133384 270.28,46.4 L270.28,24.52 L273.92,24.52 L273.92,46.4 C273.92,47.200004 273.926667,47.8466642 273.94,48.34 C273.953333,48.8333358 273.973333,49.2399984 274,49.56 C274.026667,49.8800016 274.073333,50.1333324 274.14,50.32 C274.206667,50.5066676 274.293333,50.6933324 274.4,50.88 C274.560001,51.146668 274.766665,51.3266662 275.02,51.42 C275.273335,51.5133338 275.626664,51.56 276.08,51.56 C276.533336,51.56 276.879999,51.5133338 277.12,51.42 C277.360001,51.3266662 277.559999,51.146668 277.72,50.88 C277.826667,50.6933324 277.913333,50.5066676 277.98,50.32 C278.046667,50.1333324 278.093333,49.8800016 278.12,49.56 C278.146667,49.2399984 278.166667,48.8333358 278.18,48.34 C278.193333,47.8466642 278.2,47.200004 278.2,46.4 L278.2,24.52 Z M284.16,54.8 L284.16,24.52 L290.04,24.52 C291.400007,24.52 292.426663,24.6933316 293.12,25.04 C293.813337,25.3866684 294.359998,26.0133288 294.76,26.92 C294.946668,27.3733356 295.106666,27.8599974 295.24,28.38 C295.373334,28.9000026 295.48,29.6133288 295.56,30.52 C295.64,31.4266712 295.693333,32.5999928 295.72,34.04 C295.746667,35.4800072 295.76,37.3466552 295.76,39.64 C295.76,42.0133452 295.74,43.933326 295.7,45.4 C295.66,46.866674 295.6,48.0466622 295.52,48.94 C295.44,49.8333378 295.340001,50.5333308 295.22,51.04 C295.099999,51.5466692 294.946668,52.0133312 294.76,52.44 C294.386665,53.3466712 293.853337,53.966665 293.16,54.3 C292.466663,54.633335 291.426674,54.8 290.04,54.8 L284.16,54.8 Z M289.96,51.08 C290.493336,51.08 290.886665,50.9933342 291.14,50.82 C291.393335,50.6466658 291.586666,50.3333356 291.72,49.88 C291.8,49.5866652 291.873333,49.2533352 291.94,48.88 C292.006667,48.5066648 292.053333,47.9600036 292.08,47.24 C292.106667,46.5199964 292.126667,45.560006 292.14,44.36 C292.153333,43.159994 292.16,41.5733432 292.16,39.6 C292.16,37.6799904 292.153333,36.1266726 292.14,34.94 C292.126667,33.7533274 292.106667,32.793337 292.08,32.06 C292.053333,31.326663 292.013334,30.7666686 291.96,30.38 C291.906666,29.9933314 291.826667,29.6533348 291.72,29.36 C291.559999,28.9066644 291.353335,28.5866676 291.1,28.4 C290.846665,28.2133324 290.466669,28.12 289.96,28.12 L287.68,28.12 L287.68,51.08 L289.96,51.08 Z M298.08,54.8 L298.08,24.52 L301.72,24.52 L301.72,54.8 L298.08,54.8 Z M305.08,52.84 C304.893332,52.3866644 304.733334,51.8866694 304.6,51.34 C304.466666,50.7933306 304.36,50.053338 304.28,49.12 C304.2,48.186662 304.14,46.9666742 304.1,45.46 C304.06,43.9533258 304.04,42.0133452 304.04,39.64 C304.04,37.2666548 304.06,35.3333408 304.1,33.84 C304.14,32.3466592 304.2,31.133338 304.28,30.2 C304.36,29.266662 304.466666,28.533336 304.6,28 C304.733334,27.466664 304.893332,26.9600024 305.08,26.48 C305.453335,25.546662 305.986663,24.9000018 306.68,24.54 C307.373337,24.1799982 308.399993,24 309.76,24 C311.120007,24 312.146663,24.1799982 312.84,24.54 C313.533337,24.9000018 314.066665,25.546662 314.44,26.48 C314.626668,26.9600024 314.786666,27.466664 314.92,28 C315.053334,28.533336 315.16,29.266662 315.24,30.2 C315.32,31.133338 315.38,32.3466592 315.42,33.84 C315.46,35.3333408 315.48,37.2666548 315.48,39.64 C315.48,42.0133452 315.46,43.9533258 315.42,45.46 C315.38,46.9666742 315.32,48.186662 315.24,49.12 C315.16,50.053338 315.053334,50.7933306 314.92,51.34 C314.786666,51.8866694 314.626668,52.3866644 314.44,52.84 C314.066665,53.773338 313.533337,54.4199982 312.84,54.78 C312.146663,55.1400018 311.120007,55.32 309.76,55.32 C308.399993,55.32 307.373337,55.1400018 306.68,54.78 C305.986663,54.4199982 305.453335,53.773338 305.08,52.84 Z M311.48,50.28 C311.56,49.9599984 311.626666,49.6133352 311.68,49.24 C311.733334,48.8666648 311.78,48.313337 311.82,47.58 C311.86,46.846663 311.893333,45.8533396 311.92,44.6 C311.946667,43.3466604 311.96,41.6666772 311.96,39.56 C311.96,37.4533228 311.953333,35.766673 311.94,34.5 C311.926667,33.233327 311.9,32.233337 311.86,31.5 C311.82,30.766663 311.773334,30.2200018 311.72,29.86 C311.666666,29.4999982 311.6,29.1600016 311.52,28.84 C311.386666,28.3599976 311.193335,28.020001 310.94,27.82 C310.686665,27.619999 310.293336,27.52 309.76,27.52 C309.226664,27.52 308.840001,27.619999 308.6,27.82 C308.359999,28.020001 308.173334,28.3466644 308.04,28.8 C307.96,29.1200016 307.886667,29.4666648 307.82,29.84 C307.753333,30.2133352 307.7,30.766663 307.66,31.5 C307.62,32.233337 307.593333,33.233327 307.58,34.5 C307.566667,35.766673 307.56,37.4533228 307.56,39.56 C307.56,41.6666772 307.566667,43.3466604 307.58,44.6 C307.593333,45.8533396 307.62,46.846663 307.66,47.58 C307.7,48.313337 307.753333,48.8666648 307.82,49.24 C307.886667,49.6133352 307.96,49.9599984 308.04,50.28 C308.173334,50.7600024 308.359999,51.0933324 308.6,51.28 C308.840001,51.4666676 309.226664,51.56 309.76,51.56 C310.293336,51.56 310.679999,51.4666676 310.92,51.28 C311.160001,51.0933324 311.346666,50.7600024 311.48,50.28 Z" id="Incremental.studio" fill="#000000"></path>
    </g>
</svg>