<?xml version="1.0" encoding="UTF-8"?>
<svg width="331px" height="76px" viewBox="0 0 331 76" version="1.1" xmlns="http://www.w3.org/2000/svg" xmlns:xlink="http://www.w3.org/1999/xlink">
    <!-- Generator: Sketch 48 (47235) - http://www.bohemiancoding.com/sketch -->
    <title>codefuly</title>
    <defs></defs>
    <g id="Page-1" stroke="none" stroke-width="1" fill="none" fill-rule="evenodd">
        <path d="M33.1953125,46.40625 L39.8359375,53.4375 C37.921875,55.7421875 35.4609375,57.6953125 32.4140625,59.21875 C29.3671875,60.7421875 25.890625,61.5234375 21.984375,61.5234375 C15.890625,61.5234375 10.578125,59.4921875 6.7109375,55.8203125 C2.8046875,52.1484375 0.4609375,46.328125 0.4609375,39.296875 C0.4609375,34.6484375 1.4375,30.625 3.3515625,27.2265625 C5.265625,23.828125 7.84375,21.328125 11.046875,19.6484375 C14.25,18.0078125 17.8828125,17.1875 21.984375,17.1875 C26.2421875,17.1875 30.03125,18.1640625 32.8828125,19.8828125 C34.2890625,20.78125 35.421875,21.5625 36.28125,22.265625 C37.1015625,22.96875 38.0390625,23.828125 39.0546875,24.8828125 L32.4140625,32.1484375 C31.1640625,30.7421875 29.5625,29.4921875 27.5703125,28.359375 C25.578125,27.265625 23.5078125,26.71875 21.359375,26.71875 C15.6953125,26.71875 13.4296875,31.015625 13.4296875,39.453125 C13.4296875,48.046875 15.7734375,51.9921875 21.75,51.9921875 C25.7734375,51.9921875 29.5625,50.1171875 33.1953125,46.40625 Z M65.421875,17.1875 C71.984375,17.1875 77.140625,19.1015625 80.9296875,22.9296875 C84.6796875,26.7578125 86.5546875,32.2265625 86.5546875,39.296875 C86.5546875,46.40625 84.6796875,51.875 80.890625,55.7421875 C77.1015625,59.609375 71.9453125,61.5234375 65.421875,61.5234375 C58.8984375,61.5234375 53.7421875,59.609375 49.9921875,55.7421875 C46.2421875,51.875 44.3671875,46.40625 44.3671875,39.296875 C44.3671875,32.1875 46.2421875,26.71875 49.9921875,22.890625 C53.7421875,19.1015625 58.8984375,17.1875 65.421875,17.1875 Z M65.421875,26.71875 C62.3359375,26.71875 60.2265625,27.6953125 59.09375,29.609375 C57.921875,31.5234375 57.3359375,34.765625 57.3359375,39.296875 C57.3359375,43.7109375 57.8828125,46.953125 59.015625,48.9453125 C60.109375,50.9765625 62.2578125,51.9921875 65.421875,51.9921875 C68.5859375,51.9921875 70.7734375,50.9765625 71.90625,48.9453125 C73.0390625,46.9140625 73.5859375,43.7109375 73.5859375,39.296875 C73.5859375,34.765625 73,31.5234375 71.8671875,29.609375 C70.6953125,27.6953125 68.546875,26.71875 65.421875,26.71875 Z M133,1.0546875 L133,53.359375 L134.132812,60 L123.976562,60 L122.140625,57.6171875 L121.984375,57.6171875 C118.976562,60.15625 115.304688,61.4453125 111.007812,61.4453125 C105.8125,61.4453125 101.007812,59.4921875 97.4140625,55.8984375 C93.78125,52.34375 91.4765625,46.5234375 91.4765625,39.53125 C91.4765625,32.5390625 93.859375,26.5625 97.53125,22.9296875 C101.203125,19.296875 105.890625,17.1875 110.851562,17.1875 C114.328125,17.1875 117.53125,18.359375 120.539062,20.703125 L120.695312,20.703125 L120.695312,1.5234375 L133,1.0546875 Z M104.445312,39.53125 C104.445312,46.5625 106.515625,51.9140625 113.664062,51.9140625 C116.28125,51.9140625 118.625,51.328125 120.695312,50.15625 L120.695312,32.2265625 C120.695312,27.6953125 116.671875,26.71875 113.351562,26.71875 C109.914062,26.71875 107.570312,27.6953125 106.320312,29.6875 C105.070312,31.6796875 104.445312,34.9609375 104.445312,39.53125 Z M180.03125,39.453125 L180.03125,43.4375 L153.3125,43.4375 C154.25,49.1796875 157.101562,51.9921875 162.84375,51.9921875 C167.414062,51.9921875 170.304688,50.3515625 173,47.5390625 L179.25,54.8046875 C174.992188,59.1796875 168.898438,61.5234375 162.453125,61.5234375 C156.515625,61.5234375 151.125,59.4921875 146.984375,55.859375 C142.84375,52.2265625 140.1875,46.2109375 140.1875,39.0234375 C140.1875,32.421875 142.0625,27.1484375 145.773438,23.1640625 C149.484375,19.1796875 154.40625,17.1875 160.617188,17.1875 C164.484375,17.1875 167.765625,17.7734375 171.28125,19.8046875 C173.039062,20.8203125 174.523438,22.109375 175.773438,23.7109375 C178.273438,26.9140625 180.03125,32.421875 180.03125,39.453125 Z M153.234375,34.4921875 L168.351562,34.4921875 C168.351562,29.53125 165.578125,26.71875 161.007812,26.71875 C156.125,26.71875 153.859375,29.0625 153.234375,34.4921875 Z M204.796875,10.15625 C202.335938,10.15625 201.320313,11.171875 201.515625,13.671875 L202.257813,18.7109375 L212.179688,18.7109375 L211.945313,27.9296875 L202.257813,27.9296875 L202.257813,60 L189.835938,60 L189.835938,27.9296875 L185.03125,27.9296875 L185.03125,18.7109375 L189.835938,18.7109375 L189.835938,15.5859375 C189.835938,10.078125 191.28125,6.0546875 193.898438,3.9453125 C196.515625,1.8359375 199.5625,0.9765625 203.625,0.9765625 C205.617188,0.9765625 207.53125,1.1328125 209.132813,1.5625 C210.734375,1.9921875 211.867188,2.2265625 213.15625,2.8125 C214.40625,3.4375 214.757813,3.5546875 215.734375,4.1015625 C216.203125,4.375 216.4375,4.53125 216.476563,4.5703125 L212.726563,11.5234375 C209.953125,10.625 207.296875,10.15625 204.796875,10.15625 Z M261.046875,18.7109375 L261.046875,53.359375 L262.140625,60 L251.515625,60 L250.148438,55.7421875 L249.914062,55.7421875 C247.21875,59.4921875 243.078125,61.3671875 237.414062,61.3671875 C232.453125,61.3671875 228.507812,59.921875 225.617188,57.0703125 C222.726562,54.21875 221.28125,50.3125 221.28125,45.3515625 L221.28125,18.7109375 L233.664062,18.7109375 L233.664062,43.90625 C233.703125,49.8046875 236.398438,52.1484375 241.125,52.1484375 C245.695312,52.1484375 248.625,49.921875 248.625,46.328125 L248.625,18.7109375 L261.046875,18.7109375 Z M270.226562,60 L270.226562,1.5234375 L282.609375,1.0546875 L282.609375,60 L270.226562,60 Z M311.398438,41.3671875 L318.585938,18.7109375 L331.046875,18.7109375 L315.617188,58.7109375 C310.929688,69.84375 302.726562,75.7421875 289.132812,75.7421875 L288.898438,65.5078125 C292.296875,65.5859375 295.382812,65 298.234375,63.75 C301.046875,62.4609375 303.078125,60.4296875 304.328125,57.6171875 L288.898438,18.7109375 L301.554688,18.7109375 L308.585938,41.3671875 L309.953125,44.8828125 L311.398438,41.3671875 Z" id="codefuly" fill="#FFFFFF"></path>
    </g>
</svg>