<?xml version="1.0" encoding="UTF-8"?>
<svg width="180px" height="129px" viewBox="0 0 180 129" version="1.1" xmlns="http://www.w3.org/2000/svg" xmlns:xlink="http://www.w3.org/1999/xlink">
    <!-- Generator: Sketch 48 (47235) - http://www.bohemiancoding.com/sketch -->
    <title>Page 1</title>
    <desc>Created with Sketch.</desc>
    <defs>
        <polygon id="path-1" points="0 128.683 179.168 128.683 179.168 0 0 0"></polygon>
    </defs>
    <g id="Page-1" stroke="none" stroke-width="1" fill="none" fill-rule="evenodd">
        <g>
            <path d="M68.1201,115.3431 C93.6401,115.3431 114.4051,94.5811 114.4051,69.0551 C114.4051,43.5341 93.6401,22.7651 68.1201,22.7651 L68.1201,115.3431 Z" id="Fill-1" fill="#DCE4E7"></path>
            <path d="M68.1201,22.765 C42.5941,22.765 21.8231,43.535 21.8231,69.055 C21.8231,94.581 42.5941,115.343 68.1201,115.343 L68.1201,22.765 Z" id="Fill-3" fill="#F6F2F1"></path>
            <path d="M112.4004,81.6381 C111.7894,81.6531 110.9964,81.9401 110.9864,82.1481 C110.9734,82.3591 110.1334,82.7351 109.8574,82.8461 C109.5804,82.9591 109.0394,83.8191 108.9214,84.1001 C108.8044,84.3851 108.1174,84.2991 107.8624,84.4121 C107.6094,84.5251 107.0884,84.9451 107.0854,85.1981 C107.0844,85.4501 106.9424,85.4231 106.7704,85.1351 L106.4354,85.4881 L106.0414,85.9261 C105.8144,86.6371 105.0624,87.5341 104.8024,87.6121 C104.5454,87.6821 104.4984,88.9341 104.4984,89.4331 C104.4984,89.9401 104.6944,90.5591 104.9344,90.8161 L104.9874,91.2151 L105.0754,92.0091 C104.9344,92.6241 105.4024,93.1741 105.5394,93.2821 C105.6714,93.3861 106.8174,93.0771 107.2544,92.9711 C107.4374,92.9281 107.6664,92.8281 107.8794,92.7171 C109.9264,89.2941 111.5314,85.5821 112.6444,81.6631 C112.5594,81.6461 112.4774,81.6351 112.4004,81.6381" id="Fill-5" fill="#5F9CA4"></path>
            <path d="M35.9687,82.8246 C35.9047,82.9496 36.7307,83.7996 37.0537,84.0866 C37.3737,84.3806 38.0527,85.7676 38.1917,86.2236 C38.3297,86.6796 38.2477,87.4246 38.2057,87.6016 C38.1617,87.7756 38.3607,88.1636 38.3927,88.3226 C38.4197,88.4846 38.1087,89.8456 38.2297,90.3926 C38.3477,90.9396 37.5877,92.6496 37.6047,93.4966 C37.6237,94.3456 38.0047,95.4516 38.1617,95.3696 C38.3147,95.2866 38.3687,96.1416 38.1097,96.2426 C37.8507,96.3456 37.5497,97.0216 37.6957,97.0556 C37.8407,97.0926 37.6847,97.7596 37.7257,98.0246 C37.7637,98.2926 37.9897,100.0536 38.0387,100.4936 C38.0887,100.9316 38.7157,102.0036 38.8477,102.3656 C38.9787,102.7296 39.1137,103.4176 39.1617,103.5216 C39.2127,103.6276 39.2797,103.7336 39.2857,103.7406 C39.2957,103.7436 39.8027,103.9296 39.9457,104.0426 C40.0977,104.1526 41.0857,104.0816 41.4097,104.0136 C41.7347,103.9476 41.4367,103.6516 41.2907,103.4946 C41.1447,103.3316 41.0167,102.5476 40.8477,102.4696 C40.6817,102.3926 40.6117,101.3946 40.7557,101.1766 C40.9037,100.9546 41.4957,100.6016 41.5617,100.4176 C41.6257,100.2316 41.6417,99.3636 41.4847,99.2456 C41.3247,99.1276 41.5307,98.0726 41.4097,97.5486 C41.2907,97.0276 42.3197,96.5516 42.3807,96.1356 C42.4397,95.7216 43.5527,95.2756 43.8057,95.0676 C44.0557,94.8596 44.2747,93.6726 44.1567,93.4146 C44.0317,93.1626 44.5677,92.9556 44.8067,92.9556 C45.0407,92.9556 45.3067,92.7836 45.3987,92.7836 C45.4897,92.7786 45.7727,92.2566 45.9227,92.1336 C46.0757,92.0136 46.3907,90.7596 46.6637,90.5536 C46.9467,90.3456 47.1727,89.5886 47.1727,89.3666 C47.1727,89.1446 47.5937,88.4846 47.7327,88.2846 C47.8707,88.0846 48.9107,87.6076 49.0967,87.5336 C49.2817,87.4576 49.5617,85.7876 49.6377,85.1886 C49.7067,84.5896 50.0217,83.7876 50.0427,83.5906 C50.0627,83.3936 50.3987,83.2236 50.4587,83.1626 C50.5217,83.0996 50.7667,82.3356 50.9287,82.1586 C51.0857,81.9846 51.6617,81.2566 51.6757,81.0926 C51.6897,80.9296 51.7757,80.5126 51.8697,80.1646 L51.8677,79.7566 L51.8727,79.1066 C51.6927,78.6036 51.1337,77.9736 50.9897,78.1126 C50.8477,78.2516 50.2047,77.6676 49.8767,77.5456 C49.5477,77.4256 48.7297,77.3216 48.5237,77.3216 C48.3167,77.3216 47.6017,76.7346 47.2817,76.6326 C46.9597,76.5356 46.1437,76.3766 45.9907,76.2816 C45.8427,76.1856 45.6437,74.9706 44.9847,74.5716 C44.3247,74.1726 43.1687,73.2456 43.0427,72.9046 C42.9167,72.5646 41.6517,71.8496 41.2577,71.6356 C40.8697,71.4196 40.2767,71.3676 40.2047,71.4456 C40.1257,71.5196 39.6407,70.7876 39.3887,70.5766 C39.1387,70.3716 38.3787,70.1986 38.3457,70.3846 C38.3117,70.5726 37.8077,70.4736 37.6897,70.3146 C37.5717,70.1576 37.1797,70.3766 36.9957,70.4396 C36.8147,70.4966 36.1847,71.4586 35.8997,71.6916 C35.6057,71.9196 35.2617,71.4756 35.0727,71.3926 C34.8797,71.3126 34.1557,71.5376 33.9547,71.6776 C33.7597,71.8166 33.3007,70.6596 33.4077,70.1266 C33.5117,69.5936 32.9297,68.5346 32.4787,68.5066 C32.0307,68.4806 31.8877,67.3676 31.9767,66.9546 C32.0677,66.5456 31.1637,66.2876 30.9397,66.2616 C30.7097,66.2296 30.1467,66.8086 30.0527,67.0876 C29.9527,67.3636 27.9057,66.7096 28.1507,65.4806 C28.3877,64.2526 29.3607,62.9826 29.6007,62.8306 C29.8417,62.6816 31.1577,62.6066 31.4477,62.7716 C31.7397,62.9436 32.0047,62.7696 32.0537,62.6966 C32.1027,62.6216 33.1767,62.7076 33.4957,62.8406 C33.8167,62.9706 34.2777,64.2096 34.6087,64.3626 C34.9437,64.5156 35.0647,63.5596 35.1157,63.3286 C35.1727,63.0956 34.9537,62.5066 34.8757,62.3396 C34.7927,62.1746 35.4067,60.6726 35.9137,60.4156 C36.4107,60.1576 36.9417,59.3226 36.9017,59.1726 C36.8547,59.0266 37.3017,58.9106 37.4187,58.8466 C37.5397,58.7876 37.4007,57.5716 37.6007,57.3046 C37.7997,57.0446 38.7397,56.4856 39.0397,56.3586 C39.3347,56.2346 39.5607,55.4666 39.4547,55.3326 C39.3447,55.1956 40.2237,54.4476 40.6817,54.3026 C41.1367,54.1626 41.5307,54.5646 41.4197,54.6266 C41.5087,54.5796 42.1397,54.2526 42.4087,54.0746 C42.7217,53.8666 42.4117,53.2996 42.2107,53.1306 C42.0097,52.9656 42.1307,52.3046 42.3727,52.2446 C42.6147,52.1846 42.8257,51.6136 42.7617,51.4916 C42.6977,51.3676 43.7687,51.5906 44.1767,51.2886 C44.5777,50.9846 44.2927,52.0126 43.9927,52.4276 C43.6987,52.8396 44.2117,53.2326 44.4027,53.1526 C44.5937,53.0736 44.7997,53.3726 44.8377,53.4886 C44.8757,53.6036 45.2887,53.3676 45.5567,53.4846 C45.8257,53.6036 45.9847,53.1166 46.0087,52.8926 C46.0277,52.6666 45.3637,52.2006 45.2597,51.9316 C45.1567,51.6626 45.1137,50.0946 45.0977,49.7736 C45.0827,49.4516 44.6507,48.9296 44.5127,49.0226 C44.3737,49.1126 44.0927,48.1876 43.8687,47.9876 C43.6437,47.7866 43.5937,47.3446 43.6017,47.1956 C43.6147,47.0456 42.8417,46.2416 42.6587,45.8696 C42.4757,45.4986 42.2157,45.5736 42.1977,45.7416 C42.1777,45.9146 41.6467,45.9366 41.4277,45.9166 C41.2037,45.8966 41.0247,45.0486 41.0247,44.7246 C41.0247,44.4066 40.0307,44.3496 39.8697,44.0916 C39.7097,43.8356 39.0617,43.9566 38.9587,43.7766 C38.8557,43.5976 38.2817,43.4336 38.1747,43.5006 C38.0527,43.5676 38.1097,45.8696 38.0027,46.4926 C37.8897,47.1096 37.3657,47.6576 37.1707,47.6426 C36.9807,47.6296 37.0937,48.0856 37.2287,48.0466 C37.3637,48.0026 36.8547,48.7226 36.7877,49.1956 C36.7227,49.6646 36.2407,49.1726 36.1667,48.7466 C36.0887,48.3166 35.6197,47.7396 35.5317,47.8866 C35.4407,48.0316 35.1207,47.7096 34.9777,47.8016 C34.8387,47.8946 33.9547,47.2876 33.5977,47.0916 C33.2427,46.9046 33.0407,45.8056 32.8387,45.7106 C32.6307,45.6106 32.8057,45.4806 32.7967,45.3146 C32.7897,45.1486 33.4897,44.5116 33.6987,44.2586 C33.9087,44.0066 34.6757,43.0096 34.9777,42.7956 C35.2837,42.5816 35.5207,42.0116 35.4667,41.9046 C35.4167,41.8016 36.7667,41.3796 37.1347,41.2526 C37.4977,41.1276 37.8177,40.1066 37.8657,39.8126 C37.9137,39.5196 37.6357,38.9636 37.4677,38.8906 C37.2967,38.8186 37.9797,38.7936 38.2017,38.9066 C38.4297,39.0166 39.1277,38.7006 39.4017,38.8456 C39.6767,38.9916 40.2337,39.3216 40.6347,39.5786 L40.5477,40.3256 L40.3847,41.5956 C39.3197,42.0386 39.0137,42.8006 39.3867,42.7846 C39.7587,42.7666 41.4607,43.5216 41.9427,43.8666 C42.4217,44.2116 42.5737,43.3676 42.7157,43.0866 C42.8557,42.8086 42.8117,41.9926 42.6977,41.8326 C42.5797,41.6686 43.2517,41.7266 43.4417,41.9096 C43.6277,42.0876 43.8497,41.7206 43.9957,41.6566 C44.1407,41.5926 44.2117,40.8926 44.2927,40.7536 C44.3687,40.6116 43.9747,40.4696 43.9627,40.2946 C43.9477,40.1176 43.1827,39.7856 42.9377,39.6686 C42.6857,39.5506 42.6287,39.0226 42.7537,38.9316 C42.8727,38.8376 42.6667,38.1676 42.5437,37.9456 C42.4247,37.7226 41.6257,37.5426 41.3567,37.5426 C41.0907,37.5426 40.8147,36.9246 40.6637,36.8346 C40.5087,36.7486 39.4837,36.6336 39.2337,36.7076 C38.9787,36.7826 38.5137,35.9806 38.0857,36.2256 C37.6567,36.4706 37.2157,35.9396 37.0227,35.8346 C36.8277,35.7266 35.8247,36.8046 35.8347,37.5596 C35.8457,38.3186 36.2257,39.0486 36.3827,39.0706 C36.5407,39.0906 36.3457,39.7746 36.1697,39.9706 C35.9997,40.1636 35.5757,39.7616 35.7377,39.5916 C35.8947,39.4216 35.3017,38.6286 35.0977,38.3066 C34.9517,38.0746 34.4297,37.8686 34.0777,37.7266 C33.8687,37.9496 33.6687,38.1796 33.4687,38.4096 C33.5477,38.6826 33.6387,39.0416 33.5497,39.3126 C33.3997,39.7746 33.0137,39.8446 32.9917,39.6446 C32.9797,39.5546 32.7877,39.4886 32.5587,39.4576 C26.9497,46.1816 23.2177,54.5176 22.1497,63.6526 C22.3707,63.9096 22.6257,64.2116 22.6937,64.4276 C22.8197,64.8326 23.5257,65.0996 23.6597,65.1846 C23.7917,65.2646 23.8367,64.4046 23.7427,64.1826 C23.6517,63.9596 23.9137,63.8246 23.9077,63.9896 C23.9017,64.1546 24.5727,64.9096 24.7947,65.1846 C25.0137,65.4576 25.2397,67.2216 25.4537,67.6016 C25.6637,67.9806 27.6997,68.7666 28.3587,68.9026 C29.0137,69.0426 29.8417,69.7756 29.9707,69.9876 C30.0977,70.1986 30.9697,70.3046 31.1557,70.3906 C31.3437,70.4766 31.7907,71.0666 31.9767,71.1896 C32.1617,71.3156 32.3087,71.6646 32.3087,71.7596 C32.3087,71.8536 33.4597,72.2856 33.7397,72.5956 C34.0167,72.9046 34.4797,72.8186 34.5677,72.6886 C34.6527,72.5596 34.8797,73.3016 35.0007,73.5546 C35.1157,73.8136 35.1467,74.4426 35.0567,74.5436 C34.9647,74.6406 34.7997,75.7996 34.6047,76.0296 C34.4077,76.2626 34.0007,77.9446 34.0867,78.2746 C34.1767,78.6096 34.7167,79.2956 34.9517,79.3996 C35.1827,79.5006 35.0827,79.8586 34.9007,79.8846 C34.7167,79.9076 34.8017,81.5136 35.2377,81.7526 C35.6697,81.9886 36.0307,82.7016 35.9687,82.8246" id="Fill-7" fill="#5F9CA4"></path>
            <path d="M41.416,54.6293 L41.42,54.6263 C41.405,54.6343 41.4,54.6373 41.416,54.6293" id="Fill-9" fill="#5F9CA4"></path>
            <path d="M38.2529,35.1058 C38.8069,35.0128 39.7269,34.8578 39.7899,34.7038 C39.8369,34.5778 39.8439,34.1958 39.7409,34.0628 C39.8269,34.0688 39.9299,34.0728 40.0069,34.0728 C40.2179,34.0728 40.5679,32.9188 40.7899,32.6508 C41.0129,32.3808 42.2779,31.9818 42.5799,31.8008 C42.8809,31.6168 43.5419,30.9808 43.7969,30.9088 C44.0519,30.8338 44.4209,30.2388 44.3629,30.1208 C44.3099,30.0018 45.2219,29.4498 45.5709,29.3008 C45.9139,29.1538 46.0969,28.7468 45.9659,28.7298 C45.8829,28.7208 43.9469,29.7308 42.1779,30.7358 C40.1559,32.1078 38.2589,33.6428 36.4809,35.3068 C37.0339,35.2658 37.8899,35.1678 38.2529,35.1058" id="Fill-11" fill="#5F9CA4"></path>
            <path d="M71.7305,92.7191 C72.3245,92.3681 73.3285,90.8811 73.6605,90.5691 C73.9905,90.2551 74.2305,89.1291 74.3035,88.8831 C74.3685,88.6371 74.8735,88.2391 75.0605,88.1861 C75.2485,88.1311 75.8455,85.6351 76.3725,85.0891 C76.9025,84.5451 77.5185,81.9061 77.4545,80.9571 C77.3885,80.0101 77.7915,78.2001 77.9175,77.7651 C78.0435,77.3301 78.7055,76.5601 78.9095,76.4001 C79.1115,76.2391 80.3845,74.3551 80.7955,73.6811 C81.2035,73.0051 81.5965,71.5231 81.5165,71.1771 C81.4375,70.8291 80.5515,70.5871 80.3865,70.7571 C80.2235,70.9301 79.3875,71.0701 79.1225,71.0701 C78.8545,71.0701 78.2425,69.6421 77.8655,69.3491 C77.4865,69.0551 77.1445,67.4181 76.9255,67.1111 C76.7065,66.8011 76.0955,66.0161 75.9055,65.8341 C75.7145,65.6571 75.6795,64.7901 75.6355,64.5531 C75.5935,64.3151 76.0055,64.7081 76.0785,65.0511 C76.1485,65.3981 77.1285,66.7911 77.4325,67.2621 C77.7365,67.7321 78.5355,69.2271 78.7395,69.6961 C78.9435,70.1601 80.7215,69.9251 81.2985,69.6531 C81.8795,69.3771 82.5975,68.9181 82.6255,68.7581 C82.6525,68.5961 83.5725,68.1721 83.8275,67.9681 C84.0825,67.7631 84.3095,66.6941 84.4755,66.5221 C84.6415,66.3481 84.3415,65.3281 84.1515,65.0231 C83.9605,64.7191 83.0365,64.4771 82.8505,64.5971 C82.6635,64.7181 82.2635,63.9121 82.1235,63.6161 C81.9805,63.3211 81.2755,62.9591 81.1975,62.7581 C81.1235,62.5531 81.3885,62.2341 81.5015,62.1641 C81.6115,62.0921 82.9125,63.0061 83.2915,63.4621 C83.6605,63.9151 84.0875,64.7521 84.1645,64.8971 C84.2285,65.0411 85.2585,65.1151 85.4885,64.9481 C85.7175,64.7781 85.9795,64.8231 86.0725,65.0411 L86.3945,64.9871 L87.5205,64.8111 C88.0535,65.3881 88.2095,65.8881 88.1975,66.0031 C88.1825,66.1151 88.5225,66.5851 88.7405,66.6341 C88.9585,66.6881 89.1195,67.4251 89.1865,67.6061 C89.2525,67.7911 89.8945,68.8951 90.0265,69.3591 C90.1605,69.8241 90.7065,70.7311 90.8365,70.9731 C90.9685,71.2161 91.0765,71.9191 91.0765,72.1121 C91.0765,72.3031 91.4885,72.6811 91.7465,72.6631 C91.9985,72.6471 92.5185,71.0311 92.6395,70.4301 C92.7555,69.8281 93.1745,69.3331 93.2915,69.3331 C93.4095,69.3331 93.5015,68.9951 93.5015,68.8671 C93.5015,68.7401 94.1565,68.7541 94.2125,68.5891 C94.2695,68.4261 94.4635,67.3581 94.6955,67.1981 C94.9315,67.0331 95.7575,66.4921 96.0495,66.3921 C96.3375,66.2891 97.0765,66.9301 97.2445,67.2291 C97.4095,67.5241 97.5605,68.2851 97.4965,68.4081 C97.4345,68.5341 97.8875,69.1891 98.2855,69.1781 C98.6775,69.1641 98.8015,69.6791 98.8105,69.8641 C98.8305,70.0491 99.3455,70.5761 99.4525,70.8141 C99.5565,71.0481 99.5255,71.6951 99.4545,71.8411 C99.3845,71.9871 99.4325,72.8321 99.5085,73.0711 C99.5835,73.3051 100.7955,74.5371 101.2515,74.9111 C101.7075,75.2821 101.9225,74.1511 101.6895,73.7961 C101.4575,73.4441 100.6625,72.6221 100.4785,72.3791 C100.2915,72.1321 100.2595,71.1491 100.3305,70.8711 C100.3965,70.5981 101.0225,71.0261 101.2815,71.2241 C101.5425,71.4221 101.8805,71.8651 101.8905,72.0161 C101.9005,72.1611 103.5275,71.2521 103.5845,70.2611 C103.6395,69.2721 104.1825,68.1571 104.2355,67.8971 C104.2905,67.6341 104.0745,67.2781 103.9375,67.2701 C103.7985,67.2551 104.1795,66.5131 104.6375,66.5261 C105.0935,66.5391 106.1915,65.3141 106.4515,64.8291 C106.7105,64.3431 107.2345,63.9461 107.2935,63.8831 C107.3555,63.8261 107.7205,62.6761 107.7845,62.2021 C107.8455,61.7291 107.5165,60.9851 107.4755,60.7401 C107.4375,60.4951 107.0435,59.9291 106.9425,59.7501 C106.8425,59.5731 106.7445,58.9101 106.8085,58.7831 C106.8685,58.6641 107.2785,58.5301 107.3245,58.4201 C107.3675,58.3071 107.8385,57.8061 107.8035,57.5841 C107.7715,57.3611 108.0935,57.8701 108.3145,58.0561 C108.5265,58.2371 108.7605,59.4161 109.0275,59.5491 C109.2925,59.6761 110.3735,58.2961 110.2415,57.4051 C110.1085,56.5121 110.5555,55.3731 110.8145,55.2721 C111.0135,55.1931 111.5165,54.4721 111.8635,53.9561 C109.4895,47.0961 105.5445,40.9641 100.4635,35.9871 C100.4025,35.9931 100.3425,35.9931 100.2885,35.9821 L99.8895,35.8991 C99.2275,35.7571 98.8435,35.0461 98.9565,34.8831 C98.9915,34.8301 98.9855,34.7131 98.9515,34.5711 C98.5795,34.2381 98.2025,33.9081 97.8165,33.5861 C97.5015,33.5761 97.1715,33.5861 96.9785,33.5781 C96.5805,33.5631 95.7175,33.2781 95.5645,33.1251 C95.4085,32.9731 94.8875,33.2621 94.8575,33.5501 C94.8245,33.8381 93.9185,33.9701 93.8325,34.1901 C93.7425,34.4071 93.2765,34.4231 93.1865,34.2991 C93.0955,34.1761 92.2555,34.5961 91.8355,34.6571 C91.4185,34.7161 90.6435,35.0551 90.4535,35.1371 C90.2655,35.2191 89.8225,35.6541 89.7505,35.8341 C89.6825,36.0151 89.1445,36.3141 88.9705,36.3831 C88.7965,36.4491 88.8355,37.2311 89.0555,37.3441 C89.2795,37.4511 88.6435,37.2481 88.3635,37.1041 C88.0805,36.9631 87.7705,37.4361 87.6845,37.6011 C87.5925,37.7611 87.3375,37.5031 87.3495,37.2711 C87.3605,37.0361 86.6575,36.8491 86.5645,37.0341 C86.4695,37.2201 85.9835,36.9711 85.7845,36.8671 C85.5795,36.7611 84.7095,37.6681 84.3865,37.9941 C84.0645,38.3221 82.5185,38.5731 82.2305,38.4511 C81.9395,38.3301 81.6545,39.1361 81.9035,39.1901 C82.1485,39.2391 81.2755,39.1511 80.7965,39.1961 C80.3175,39.2411 78.9175,39.8001 78.5895,40.0451 C78.2535,40.2951 77.9845,39.9931 77.9845,39.8031 C77.9845,39.6121 77.4545,39.4351 77.2955,39.3811 C77.1395,39.3281 76.8315,40.4241 76.5545,40.6371 C76.2745,40.8511 75.9435,39.7811 75.2925,39.6041 C74.6415,39.4291 73.6225,38.7991 73.3335,38.7241 C73.0445,38.6491 72.4645,38.0411 72.2995,37.8651 C72.1375,37.6881 71.3015,37.5421 71.0345,37.5421 C70.7685,37.5421 69.9075,38.0351 69.6755,38.2331 C69.4415,38.4281 69.0935,38.3871 68.9785,38.4591 C68.8625,38.5291 67.8895,39.4831 67.5125,39.7841 C67.1335,40.0801 66.4705,41.3691 66.2605,41.6751 C66.0405,41.9811 65.7305,42.0381 65.6045,42.0461 C65.4785,42.0531 65.3735,42.3971 65.3735,42.5221 C65.3735,42.6491 64.2545,43.2331 64.1375,43.7421 C64.0185,44.2481 64.2485,45.4111 64.2485,45.8241 C64.2485,46.2371 64.6635,47.0551 64.9735,47.0681 C65.2815,47.0831 65.1235,47.7701 65.0415,47.9611 C64.9585,48.1561 65.2365,48.3671 65.2265,48.5311 C65.2205,48.6961 64.4405,48.9261 64.2015,49.0201 C63.9575,49.1071 63.5725,49.6511 63.5205,49.8521 C63.4755,50.0291 62.7285,50.1531 62.4835,50.3921 C62.5445,50.2201 62.6265,49.9851 62.6945,49.8521 C62.8365,49.5781 62.6405,49.1071 62.5225,49.0091 C62.4045,48.9111 62.3495,47.5651 62.1605,47.2771 C61.9735,46.9861 61.5005,46.4981 61.3855,46.4041 C61.2685,46.3091 61.4645,45.9531 61.5335,45.8031 C61.6005,45.6551 60.9055,45.5691 60.7145,45.6801 C60.5245,45.7901 60.4225,47.1211 60.3425,47.4871 C60.2635,47.8511 60.6865,48.4091 60.8035,48.4381 C60.9175,48.4651 60.8845,49.1201 60.6425,49.1411 C60.3955,49.1641 60.1735,50.1241 60.2965,50.3431 C60.4225,50.5621 60.1245,50.9901 59.9775,51.0881 C59.8355,51.1881 60.9175,51.1311 61.4125,51.1181 C61.9035,51.1041 62.2885,51.3261 62.2365,51.3671 C62.1845,51.4071 61.2925,51.5381 61.1305,51.7501 C60.9765,51.9631 60.3695,52.3691 60.2515,52.5311 C60.1325,52.6941 60.4515,53.0551 60.7075,53.0371 C60.9605,53.0221 61.2565,53.9251 61.4585,54.0901 C61.6545,54.2581 61.5835,54.7261 61.4965,54.8551 C61.4075,54.9821 60.1995,54.7681 59.7435,54.8831 C59.2845,54.9941 58.7065,55.9631 58.6645,56.3301 C58.6245,56.6971 58.7395,57.7461 58.8005,58.0381 C58.8575,58.3261 59.8175,58.5071 60.0095,58.6511 C60.2095,58.7901 61.1245,58.6551 61.3175,58.7411 C61.5025,58.8321 62.1255,57.8121 62.2485,57.3401 C62.3635,56.8641 63.3455,55.9961 63.5495,55.6711 C63.7525,55.3501 64.8085,55.3891 65.0665,55.2191 C65.3265,55.0531 65.1805,56.0201 65.3055,56.5501 C65.4295,57.0831 66.4395,57.0161 66.2905,56.5161 C66.1435,56.0201 66.3925,55.8031 66.4315,55.9831 C66.4755,56.1601 67.4435,56.5571 67.6285,56.8381 C67.8115,57.1191 67.7575,57.7141 67.5435,57.7081 C67.3275,57.7001 67.3195,58.3631 67.5495,58.4351 C67.7755,58.5021 68.0795,57.6881 68.3225,57.5671 C68.5685,57.4461 68.7675,56.9361 68.6535,56.9001 C68.5415,56.8601 68.8575,56.4061 68.9965,56.5551 C69.1355,56.7031 68.4805,55.5641 68.0665,55.1491 C67.6555,54.7341 67.9455,54.9161 68.7175,55.5611 L69.2485,56.3081 C69.3515,56.4391 69.4885,56.8491 69.5835,56.9971 L69.7045,57.2171 C69.8105,57.4791 69.9025,58.1941 69.9025,58.3881 C69.9025,58.5791 70.3205,58.9601 70.5725,58.9421 C70.8255,58.9221 71.0185,59.0631 70.9665,59.0711 C70.9145,59.0801 71.1335,59.5751 71.3865,59.5881 C71.6385,59.5981 71.7465,58.9481 71.4945,58.9321 C71.2395,58.9191 71.2795,57.9791 71.2475,57.5731 C71.2165,57.1601 71.4295,56.8271 71.5135,56.8271 C71.6045,56.8271 71.5045,57.6671 71.5115,57.8611 C71.5135,58.0561 71.6215,58.4351 71.7415,58.7081 L72.0035,58.9061 L72.5865,59.3551 C73.4255,59.1081 74.5505,59.2981 74.5095,59.4681 C74.4605,59.6411 75.1275,59.6841 75.1665,59.4061 C75.2065,59.1311 75.2365,59.4131 75.2365,59.6061 C75.2365,59.7941 74.6875,60.5431 74.5975,60.8891 C74.5025,61.2341 72.5705,61.0001 71.7375,60.9361 C70.9025,60.8731 69.6755,61.1551 69.5835,61.4051 C69.4885,61.6551 68.1895,60.8341 67.5925,60.5821 C66.9955,60.3301 66.5295,59.4231 66.4085,59.3071 C66.2845,59.1861 66.5115,58.8931 66.4525,58.7111 C66.3985,58.5321 65.0355,58.4941 64.6435,58.6411 C64.2445,58.7871 62.2085,59.0021 61.7255,59.2151 C61.2425,59.4311 60.5155,59.2021 60.2895,59.1601 C60.0625,59.1221 59.5225,59.7861 59.2485,59.9071 C58.9715,60.0291 58.6275,60.9711 58.4785,62.0071 L58.1065,62.7301 L57.8665,63.1901 C57.1935,63.7011 56.4495,65.4111 56.2285,65.7541 C56.0115,66.0991 55.8365,68.5591 55.8365,69.3871 C55.8365,70.2141 56.5555,71.9681 56.7635,72.4511 C56.9675,72.9321 58.2145,74.0051 58.6305,74.2601 C59.0485,74.5101 60.4055,74.5461 60.8525,74.5451 C61.2925,74.5431 61.8015,74.1211 61.9735,73.6061 L62.6235,73.6721 L62.9235,73.7011 C62.9395,74.0691 63.9005,74.3601 64.1375,74.4871 C64.3725,74.6151 65.0065,74.5171 65.1935,74.4631 C65.3825,74.4081 65.5935,76.1091 65.4585,76.6011 C65.3215,77.0901 65.7935,78.8151 65.9285,79.3321 C66.0705,79.8511 66.6605,81.2721 66.7195,81.7811 C66.7765,82.2911 66.3745,83.9821 66.3055,84.5741 C66.2385,85.1711 67.0445,86.8291 67.2585,87.3991 C67.4685,87.9701 67.6395,89.1971 67.6395,89.4821 C67.6395,89.7661 68.5245,91.4811 68.7235,92.1881 C68.9245,92.8951 71.1365,93.0691 71.7305,92.7191" id="Fill-13" fill="#5F9CA4"></path>
            <path d="M109.8916,71.7054 C109.9506,71.8304 110.5066,71.3894 110.8366,71.3374 C111.1736,71.2874 111.3826,70.3914 111.1216,70.3264 C110.8596,70.2554 110.5306,69.5674 110.3416,69.4844 C110.1536,69.4004 109.7846,69.7784 109.8006,70.0514 C109.8146,70.3224 109.1956,70.4334 109.0766,70.6594 C108.9606,70.8864 108.9666,71.0484 109.0956,71.0254 C109.2186,71.0044 109.8346,71.5794 109.8916,71.7054" id="Fill-15" fill="#5F9CA4"></path>
            <path d="M109.209,76.5668 C109.372,76.5038 109.19,75.6198 108.844,75.5458 C108.498,75.4748 107.537,76.7118 107.72,77.4248 C107.903,78.1328 108.102,78.0898 108.202,77.9398 C108.302,77.7908 108.872,78.0378 109.042,78.0938 C109.209,78.1488 109.209,77.9768 109.042,77.7148 C108.872,77.4508 109.045,76.6268 109.209,76.5668" id="Fill-17" fill="#5F9CA4"></path>
            <path d="M107.3144,75.7045 C107.3524,75.3885 107.4164,74.3985 107.4684,74.2035 C107.5224,74.0075 106.9294,73.4385 106.6414,73.3385 C106.3524,73.2365 105.4144,75.2615 104.7464,75.6195 C104.0744,75.9805 103.8344,77.2135 104.0094,77.4995 C104.1894,77.7835 105.5854,77.9335 105.8284,78.1485 C106.0754,78.3625 106.3454,78.1145 106.4924,78.0785 C106.6414,78.0425 106.5924,77.9475 106.5384,77.9095 C106.4794,77.8755 107.0254,77.3015 107.1044,76.9355 C107.1794,76.5745 107.2754,76.0175 107.3144,75.7045" id="Fill-19" fill="#5F9CA4"></path>
            <path d="M103.5127,79.0736 C102.9897,78.8756 102.3717,79.1836 102.3237,79.3886 C102.2717,79.5906 104.3417,79.9206 105.0297,80.1036 C105.7147,80.2916 106.1447,80.3506 105.9857,80.2366 C105.8277,80.1196 104.0357,79.2716 103.5127,79.0736" id="Fill-21" fill="#5F9CA4"></path>
            <path d="M107.7148,65.6078 C107.8808,65.3758 107.4838,64.2918 107.2808,64.5378 C107.0838,64.7828 107.2288,65.4138 107.2908,65.6368 C107.3528,65.8498 107.5478,65.8388 107.7148,65.6078" id="Fill-23" fill="#5F9CA4"></path>
            <path d="M108.9639,67.932 C109.0829,67.652 108.8149,67.343 108.3659,67.248 C107.9189,67.157 107.9839,68.502 108.1809,68.676 C108.3769,68.846 108.8429,68.213 108.9639,67.932" id="Fill-25" fill="#5F9CA4"></path>
            <path d="M111.292,76.2797 C111.83,76.6547 113.025,76.4817 113.06,75.7567 C112.533,75.4107 111.248,75.4677 111.292,76.2797" id="Fill-27" fill="#5F9CA4"></path>
            <path d="M111.0039,59.7611 C110.7789,59.9151 110.6639,60.3131 110.7309,60.4741 C110.6999,60.4741 110.6719,60.4711 110.6409,60.4711 C110.4629,60.4711 110.4419,61.1771 110.6289,61.2981 C110.8149,61.4191 111.2669,60.7471 111.5039,60.5881 C111.7399,60.4261 112.2169,60.3271 112.2859,60.3811 C112.3579,60.4331 112.7709,60.3051 113.2109,60.1041 C113.2879,60.0681 113.3809,59.9511 113.4719,59.7891 C113.3679,59.2721 113.2419,58.7651 113.1209,58.2561 C112.8969,58.4201 112.6449,58.5971 112.5269,58.7001 C112.2919,58.9131 111.2949,59.5611 111.0039,59.7611" id="Fill-29" fill="#5F9CA4"></path>
            <path d="M98.7685,73.9691 C98.7695,73.9721 98.7735,73.9711 98.7745,73.9741 C98.6805,73.9051 98.6685,73.8991 98.7685,73.9691" id="Fill-31" fill="#5F9CA4"></path>
            <path d="M102.1035,77.0765 C101.9105,76.6395 101.2675,75.8995 100.6795,75.4295 L100.4535,75.0605 L100.2085,74.6565 C99.9895,74.2135 99.3275,73.8685 99.2705,73.7345 C99.2125,73.6055 99.0005,74.1235 98.7745,73.9735 C98.8955,74.0555 99.1415,74.2315 99.4905,74.4805 C100.1135,74.9245 101.3105,77.9395 101.5835,78.1505 C101.8535,78.3625 102.2965,77.5155 102.1035,77.0765" id="Fill-33" fill="#5F9CA4"></path>
            <path d="M92.5449,72.2054 C92.3799,72.5494 93.4329,73.2714 93.5139,73.1054 C93.6029,72.9384 93.3809,72.1034 93.1909,71.9194 C93.0059,71.7364 92.7129,71.8654 92.5449,72.2054" id="Fill-35" fill="#5F9CA4"></path>
            <path d="M78.5615,88.3109 C78.6025,88.6679 79.3285,88.9539 79.5395,88.8949 C79.7535,88.8349 80.3395,87.7519 80.4225,87.4429 C80.5025,87.1259 80.5715,86.4579 80.5715,86.2989 C80.5715,86.1399 80.6675,85.7799 80.7515,85.7359 C80.8285,85.6939 80.9635,85.3259 81.0475,84.9179 C81.1255,84.5069 80.6065,82.6089 80.5935,82.2739 C80.5825,81.9369 80.2045,82.4469 80.1105,82.7839 C80.0055,83.1219 79.0605,83.8089 78.8495,84.0969 C78.6435,84.3829 78.4095,85.3559 78.4915,85.5259 C78.5695,85.6889 78.4095,86.3509 78.3145,86.5369 C78.2205,86.7189 78.5225,87.9509 78.5615,88.3109" id="Fill-37" fill="#5F9CA4"></path>
            <path d="M44.4316,101.4691 L45.0706,101.4691 C45.1836,100.7821 44.4006,100.8961 44.4316,101.4691" id="Fill-39" fill="#5F9CA4"></path>
            <path d="M61.3984,29.847 C61.1304,29.88 60.4394,29.742 60.3204,29.613 C60.2014,29.489 59.1694,29.375 58.8704,29.501 C58.5714,29.627 58.7754,28.774 59.1894,28.68 C59.6044,28.588 59.2534,28 58.8114,27.998 C58.3704,27.995 57.2784,27.835 57.0214,27.892 C56.7634,27.949 56.2614,27.714 56.0804,27.686 C55.8964,27.66 54.5854,28.078 53.9644,28.049 C53.3444,28.021 51.8224,28.082 51.4934,28.175 C51.1604,28.263 50.9204,28.909 50.9694,29.136 C51.0164,29.368 49.4944,29.364 49.0174,29.368 C48.5364,29.375 45.9844,29.918 45.3194,30.285 C44.6504,30.651 44.1304,31.588 44.3534,31.608 C44.5734,31.624 43.9804,32.155 43.6254,32.28 C43.2664,32.404 42.4124,32.457 42.2114,32.66 C42.0094,32.86 42.4244,32.998 42.5024,33.133 C42.5844,33.267 42.8234,33.015 43.0494,33.146 C43.2694,33.272 44.0164,33.331 44.2114,33.407 C44.4124,33.486 43.5834,33.645 43.1954,33.671 C42.8024,33.7 42.8904,34.467 43.2084,34.571 C43.5264,34.678 44.3434,34.791 44.4274,34.658 C44.5124,34.522 45.3994,34.801 45.8004,34.85 C46.2004,34.892 46.5044,35.896 46.6264,36.113 C46.7514,36.329 46.7764,37.091 46.7464,37.313 C46.7194,37.534 47.4544,37.938 47.5874,37.796 C47.7164,37.656 47.6804,38.142 47.3844,38.117 C47.0904,38.092 47.2844,38.94 47.6454,39.063 C48.0084,39.184 47.7604,39.705 47.5524,39.865 C47.3424,40.022 47.4574,40.522 47.2414,40.701 C47.0294,40.877 48.0014,42.566 47.9964,43.434 C47.9924,44.302 48.5314,45.01 48.7394,45.01 C48.9474,45.01 49.6604,45.186 49.7534,45.371 C49.8454,45.557 50.1924,45.243 50.3284,45.1 C50.4624,44.958 50.7554,44.539 50.9724,44.173 C51.1934,43.805 51.6844,42.064 51.7474,41.876 C51.8144,41.69 52.6304,41.809 52.8184,41.713 C53.0024,41.616 53.5394,41.197 53.6894,41.068 C53.8424,40.944 55.0064,40.451 55.3274,40.219 C55.6454,39.993 56.1744,39.004 56.4214,38.793 C56.6704,38.582 56.2944,38.644 55.9854,38.441 C55.6764,38.238 55.8114,37.988 55.9034,37.893 C55.9914,37.796 56.9314,38.049 57.2554,38.175 C57.5804,38.304 58.1974,37.856 57.9634,37.683 C57.7234,37.513 57.8474,37.516 57.9634,37.588 C58.0764,37.66 58.1974,37.017 58.0744,36.896 C57.9504,36.774 59.0244,35.989 58.8354,35.247 C58.6464,34.506 59.1284,33.743 59.4194,33.736 C59.7084,33.727 59.6234,32.897 59.2754,32.821 C58.9314,32.744 59.2544,32.667 59.3854,32.548 C59.5134,32.432 59.6774,31.691 59.6044,31.551 C59.5264,31.407 60.1324,31.247 60.2354,31.077 C60.3454,30.91 61.0394,30.578 61.2844,30.522 C61.5264,30.468 61.6604,29.816 61.3984,29.847" id="Fill-41" fill="#5F9CA4"></path>
            <path d="M67.4277,30.4525 C67.0957,30.3395 66.4287,30.7055 66.5117,30.9125 C66.5977,31.1215 65.9697,30.6455 65.5277,30.8725 C65.0887,31.1035 64.9677,31.8735 65.1667,31.9745 C65.3727,32.0765 65.5177,32.6895 65.5227,32.8075 C65.5277,32.9275 66.3767,32.8425 66.5967,32.6645 C66.8147,32.4835 66.7817,33.2855 66.5687,33.5015 C66.3547,33.7185 66.6487,34.1525 66.8847,34.1885 C67.1187,34.2225 67.4407,34.7785 67.6827,34.7735 C67.9267,34.7655 68.3427,33.8315 68.4357,33.4825 C68.5307,33.1335 69.3417,33.4065 69.7127,33.5195 C70.0827,33.6295 70.2167,32.2335 69.8147,32.0195 C69.4167,31.8115 68.9157,31.9155 68.7477,31.7575 C68.5817,31.5955 68.2987,31.4455 68.1117,31.4175 C67.9267,31.3895 67.7517,30.5625 67.4277,30.4525" id="Fill-43" fill="#5F9CA4"></path>
            <path d="M70.6601,31.1215 C71.3111,31.2145 72.0481,30.6765 72.2051,30.5215 C72.3651,30.3745 70.3951,29.9715 69.6451,29.9475 C68.8951,29.9245 68.2901,30.0265 68.3021,30.1765 C68.3141,30.3205 70.0041,31.0265 70.6601,31.1215" id="Fill-45" fill="#5F9CA4"></path>
            <path d="M58.7441,48.7855 C58.5711,48.7135 58.4761,49.3615 58.5141,49.6045 C58.5561,49.8515 59.1581,49.8305 59.4121,49.7845 C59.6691,49.7435 59.8691,49.5345 59.8591,49.3215 C59.8461,49.1125 59.4831,48.1485 59.3371,48.1485 C59.1921,48.1485 58.9171,48.8545 58.7441,48.7855" id="Fill-47" fill="#5F9CA4"></path>
            <path d="M60.6777,41.2728 C60.5437,41.0368 59.5197,41.0648 59.2697,41.0488 C59.0207,41.0368 58.2547,40.7818 58.1087,40.6168 C57.9667,40.4548 57.8537,41.2478 57.6207,41.3508 C57.3847,41.4538 57.7347,41.6058 57.8317,41.5208 C57.9257,41.4358 57.8247,41.9298 57.7197,42.0968 C57.6157,42.2668 58.4017,42.3858 58.4907,42.6408 C58.5787,42.8978 58.9037,43.0628 59.2127,43.0138 C59.5227,42.9618 60.1427,42.6428 60.3587,42.6228 C60.5747,42.5998 60.8127,41.5118 60.6777,41.2728" id="Fill-49" fill="#5F9CA4"></path>
            <path d="M82.1924,35.4047 C82.5454,35.0517 83.9924,34.5777 84.1574,34.2117 C84.3214,33.8457 84.0554,33.5497 83.9104,33.5497 C83.7634,33.5497 83.5804,33.7307 83.5484,33.7917 C83.5134,33.8487 81.8514,34.2427 81.3424,34.4877 C80.8284,34.7327 80.2394,35.1117 80.0234,35.3307 C79.8094,35.5467 79.4594,37.1947 79.3344,37.3777 C79.2104,37.5667 79.8834,38.2367 80.1854,38.4227 C80.4874,38.6057 80.8964,38.5097 81.0094,38.4747 C81.1294,38.4377 80.8584,37.2877 80.7044,36.8867 C80.5444,36.4867 81.8414,35.7637 82.1924,35.4047" id="Fill-51" fill="#5F9CA4"></path>
            <path d="M80.414,31.1136 C80.961,31.6576 81.262,30.8716 81.863,30.9496 C81.852,29.8466 80.361,30.2226 80.414,31.1136" id="Fill-53" fill="#5F9CA4"></path>
            <path d="M91.0449,31.3178 C91.0299,31.5218 92.5599,31.6858 93.0059,31.6078 C93.4529,31.5288 92.9139,30.8338 92.2589,30.8728 C91.6069,30.9158 91.0649,31.1168 91.0449,31.3178" id="Fill-55" fill="#5F9CA4"></path>
            <path d="M35.664,42.6635 C35.505,42.8105 35.643,43.5595 35.947,43.5825 C36.255,43.6035 36.744,42.4525 37.12,42.6825 C37.493,42.9145 37.748,43.0045 37.686,42.8815 C37.624,42.7605 36.556,42.2935 36.424,42.2075 C36.293,42.1285 35.827,42.5175 35.664,42.6635" id="Fill-57" fill="#5F9CA4"></path>
            <path d="M39.5762,68.059 C39.5762,68.185 40.2432,68.167 40.3512,67.961 C40.4582,67.76 40.4012,67.593 40.2222,67.593 C40.0452,67.593 39.5762,67.932 39.5762,68.059" id="Fill-59" fill="#5F9CA4"></path>
            <path d="M36.6094,66.9642 C36.9264,66.9022 36.7754,67.4182 36.8524,67.6032 C36.9284,67.7912 37.6954,67.9382 37.8474,68.0632 C38.0034,68.1872 38.3964,67.8292 38.7014,67.8672 C39.0064,67.9062 38.6004,66.8092 38.0884,66.8382 C37.5764,66.8732 37.1674,66.3752 37.0494,66.3152 C36.9234,66.2592 36.3314,65.8992 36.1604,65.7612 C35.9944,65.6252 34.6864,65.5092 34.2404,65.5092 C33.7964,65.5092 33.3084,65.9602 33.2414,66.1092 C33.1704,66.2592 33.9434,66.3602 34.1644,66.2422 C34.3854,66.1252 35.4214,66.3722 35.6304,66.6212 C35.8454,66.8692 36.2854,67.0242 36.6094,66.9642" id="Fill-61" fill="#5F9CA4"></path>
            <path d="M35.2119,68.059 C35.2119,68.185 35.8859,68.106 36.0479,68.113 C36.2099,68.114 36.2049,68.004 36.0349,67.868 C35.8649,67.732 35.2119,67.932 35.2119,68.059" id="Fill-63" fill="#5F9CA4"></path>
            <path d="M35.6875,64.5951 C35.5125,64.5261 35.3725,64.7991 35.3725,64.9321 C35.3725,65.0611 35.4665,65.1641 35.5865,65.1641 C35.7065,65.1641 35.8625,64.6641 35.6875,64.5951" id="Fill-65" fill="#5F9CA4"></path>
            <path d="M37.0996,64.7025 C37.0396,64.5725 36.7516,64.4675 36.6656,64.4675 C36.5766,64.4675 36.5176,64.6905 36.5336,64.9615 C36.5476,65.2335 37.1586,64.8295 37.0996,64.7025" id="Fill-67" fill="#5F9CA4"></path>
            <path d="M38.1162,66.2679 C38.3872,66.1349 38.4202,65.8099 38.2592,65.8289 C38.0962,65.8439 37.8002,65.3599 37.6242,65.2899 C37.4492,65.2209 37.3052,65.5809 37.3052,65.7389 C37.3052,65.8989 37.4052,66.0059 37.5242,65.9729 C37.6442,65.9449 37.8412,66.3949 38.1162,66.2679" id="Fill-69" fill="#5F9CA4"></path>
            <path d="M113.3174,76.8402 C113.1774,76.9152 112.4984,76.9942 112.4084,76.8612 C112.3194,76.7272 112.1854,77.1362 112.0394,77.2012 C111.8954,77.2702 111.9744,77.6232 112.1914,77.5142 C112.3404,77.4402 112.9864,77.7952 113.5074,78.1232 C113.6104,77.6062 113.7024,77.0852 113.7884,76.5602 C113.5994,76.6592 113.4064,76.7932 113.3174,76.8402" id="Fill-71" fill="#5F9CA4"></path>
            <path d="M35.9687,82.8246 C35.9047,82.9496 36.7307,83.7996 37.0537,84.0866 C37.3737,84.3806 38.0527,85.7676 38.1917,86.2236 C38.3297,86.6796 38.2477,87.4246 38.2057,87.6016 C38.1617,87.7756 38.3607,88.1636 38.3927,88.3226 C38.4197,88.4846 38.1087,89.8456 38.2297,90.3926 C38.3477,90.9396 37.5877,92.6496 37.6047,93.4966 C37.6237,94.3456 38.0047,95.4516 38.1617,95.3696 C38.3147,95.2866 38.3687,96.1416 38.1097,96.2426 C37.8507,96.3456 37.5497,97.0216 37.6957,97.0556 C37.8407,97.0926 37.6847,97.7596 37.7257,98.0246 C37.7637,98.2926 37.9897,100.0536 38.0387,100.4936 C38.0887,100.9316 38.7157,102.0036 38.8477,102.3656 C38.9787,102.7296 39.1137,103.4176 39.1617,103.5216 C39.2127,103.6276 39.2797,103.7336 39.2857,103.7406 C39.2957,103.7436 39.8027,103.9296 39.9457,104.0426 C40.0977,104.1526 41.0857,104.0816 41.4097,104.0136 C41.7347,103.9476 41.4367,103.6516 41.2907,103.4946 C41.1447,103.3316 41.0167,102.5476 40.8477,102.4696 C40.6817,102.3926 40.6117,101.3946 40.7557,101.1766 C40.9037,100.9546 41.4957,100.6016 41.5617,100.4176 C41.6257,100.2316 41.6417,99.3636 41.4847,99.2456 C41.3247,99.1276 41.5307,98.0726 41.4097,97.5486 C41.2907,97.0276 42.3197,96.5516 42.3807,96.1356 C42.4397,95.7216 43.5527,95.2756 43.8057,95.0676 C44.0557,94.8596 44.2747,93.6726 44.1567,93.4146 C44.0317,93.1626 44.5677,92.9556 44.8067,92.9556 C45.0407,92.9556 45.3067,92.7836 45.3987,92.7836 C45.4897,92.7786 45.7727,92.2566 45.9227,92.1336 C46.0757,92.0136 46.3907,90.7596 46.6637,90.5536 C46.9467,90.3456 47.1727,89.5886 47.1727,89.3666 C47.1727,89.1446 47.5937,88.4846 47.7327,88.2846 C47.8707,88.0846 48.9107,87.6076 49.0967,87.5336 C49.2817,87.4576 49.5617,85.7876 49.6377,85.1886 C49.7067,84.5896 50.0217,83.7876 50.0427,83.5906 C50.0627,83.3936 50.3987,83.2236 50.4587,83.1626 C50.5217,83.0996 50.7667,82.3356 50.9287,82.1586 C51.0857,81.9846 51.6617,81.2566 51.6757,81.0926 C51.6897,80.9296 51.7757,80.5126 51.8697,80.1646 L51.8677,79.7566 L51.8727,79.1066 C51.6927,78.6036 51.1337,77.9736 50.9897,78.1126 C50.8477,78.2516 50.2047,77.6676 49.8767,77.5456 C49.5477,77.4256 48.7297,77.3216 48.5237,77.3216 C48.3167,77.3216 47.6017,76.7346 47.2817,76.6326 C46.9597,76.5356 46.1437,76.3766 45.9907,76.2816 C45.8427,76.1856 45.6437,74.9706 44.9847,74.5716 C44.3247,74.1726 43.1687,73.2456 43.0427,72.9046 C42.9167,72.5646 41.6517,71.8496 41.2577,71.6356 C40.8697,71.4196 40.2767,71.3676 40.2047,71.4456 C40.1257,71.5196 39.6407,70.7876 39.3887,70.5766 C39.1387,70.3716 38.3787,70.1986 38.3457,70.3846 C38.3117,70.5726 37.8077,70.4736 37.6897,70.3146 C37.5717,70.1576 37.1797,70.3766 36.9957,70.4396 C36.8147,70.4966 36.1847,71.4586 35.8997,71.6916 C35.6057,71.9196 35.2617,71.4756 35.0727,71.3926 C34.8797,71.3126 34.1557,71.5376 33.9547,71.6776 C33.7597,71.8166 33.3007,70.6596 33.4077,70.1266 C33.5117,69.5936 32.9297,68.5346 32.4787,68.5066 C32.0307,68.4806 31.8877,67.3676 31.9767,66.9546 C32.0677,66.5456 31.1637,66.2876 30.9397,66.2616 C30.7097,66.2296 30.1467,66.8086 30.0527,67.0876 C29.9527,67.3636 27.9057,66.7096 28.1507,65.4806 C28.3877,64.2526 29.3607,62.9826 29.6007,62.8306 C29.8417,62.6816 31.1577,62.6066 31.4477,62.7716 C31.7397,62.9436 32.0047,62.7696 32.0537,62.6966 C32.1027,62.6216 33.1767,62.7076 33.4957,62.8406 C33.8167,62.9706 34.2777,64.2096 34.6087,64.3626 C34.9437,64.5156 35.0647,63.5596 35.1157,63.3286 C35.1727,63.0956 34.9537,62.5066 34.8757,62.3396 C34.7927,62.1746 35.4067,60.6726 35.9137,60.4156 C36.4107,60.1576 36.9417,59.3226 36.9017,59.1726 C36.8547,59.0266 37.3017,58.9106 37.4187,58.8466 C37.5397,58.7876 37.4007,57.5716 37.6007,57.3046 C37.7997,57.0446 38.7397,56.4856 39.0397,56.3586 C39.3347,56.2346 39.5607,55.4666 39.4547,55.3326 C39.3447,55.1956 40.2237,54.4476 40.6817,54.3026 C41.1367,54.1626 41.5307,54.5646 41.4197,54.6266 C41.5087,54.5796 42.1397,54.2526 42.4087,54.0746 C42.7217,53.8666 42.4117,53.2996 42.2107,53.1306 C42.0097,52.9656 42.1307,52.3046 42.3727,52.2446 C42.6147,52.1846 42.8257,51.6136 42.7617,51.4916 C42.6977,51.3676 43.7687,51.5906 44.1767,51.2886 C44.5777,50.9846 44.2927,52.0126 43.9927,52.4276 C43.6987,52.8396 44.2117,53.2326 44.4027,53.1526 C44.5937,53.0736 44.7997,53.3726 44.8377,53.4886 C44.8757,53.6036 45.2887,53.3676 45.5567,53.4846 C45.8257,53.6036 45.9847,53.1166 46.0087,52.8926 C46.0277,52.6666 45.3637,52.2006 45.2597,51.9316 C45.1567,51.6626 45.1137,50.0946 45.0977,49.7736 C45.0827,49.4516 44.6507,48.9296 44.5127,49.0226 C44.3737,49.1126 44.0927,48.1876 43.8687,47.9876 C43.6437,47.7866 43.5937,47.3446 43.6017,47.1956 C43.6147,47.0456 42.8417,46.2416 42.6587,45.8696 C42.4757,45.4986 42.2157,45.5736 42.1977,45.7416 C42.1777,45.9146 41.6467,45.9366 41.4277,45.9166 C41.2037,45.8966 41.0247,45.0486 41.0247,44.7246 C41.0247,44.4066 40.0307,44.3496 39.8697,44.0916 C39.7097,43.8356 39.0617,43.9566 38.9587,43.7766 C38.8557,43.5976 38.2817,43.4336 38.1747,43.5006 C38.0527,43.5676 38.1097,45.8696 38.0027,46.4926 C37.8897,47.1096 37.3657,47.6576 37.1707,47.6426 C36.9807,47.6296 37.0937,48.0856 37.2287,48.0466 C37.3637,48.0026 36.8547,48.7226 36.7877,49.1956 C36.7227,49.6646 36.2407,49.1726 36.1667,48.7466 C36.0887,48.3166 35.6197,47.7396 35.5317,47.8866 C35.4407,48.0316 35.1207,47.7096 34.9777,47.8016 C34.8387,47.8946 33.9547,47.2876 33.5977,47.0916 C33.2427,46.9046 33.0407,45.8056 32.8387,45.7106 C32.6307,45.6106 32.8057,45.4806 32.7967,45.3146 C32.7897,45.1486 33.4897,44.5116 33.6987,44.2586 C33.9087,44.0066 34.6757,43.0096 34.9777,42.7956 C35.2837,42.5816 35.5207,42.0116 35.4667,41.9046 C35.4167,41.8016 36.7667,41.3796 37.1347,41.2526 C37.4977,41.1276 37.8177,40.1066 37.8657,39.8126 C37.9137,39.5196 37.6357,38.9636 37.4677,38.8906 C37.2967,38.8186 37.9797,38.7936 38.2017,38.9066 C38.4297,39.0166 39.1277,38.7006 39.4017,38.8456 C39.6767,38.9916 40.2337,39.3216 40.6347,39.5786 L40.5477,40.3256 L40.3847,41.5956 C39.3197,42.0386 39.0137,42.8006 39.3867,42.7846 C39.7587,42.7666 41.4607,43.5216 41.9427,43.8666 C42.4217,44.2116 42.5737,43.3676 42.7157,43.0866 C42.8557,42.8086 42.8117,41.9926 42.6977,41.8326 C42.5797,41.6686 43.2517,41.7266 43.4417,41.9096 C43.6277,42.0876 43.8497,41.7206 43.9957,41.6566 C44.1407,41.5926 44.2117,40.8926 44.2927,40.7536 C44.3687,40.6116 43.9747,40.4696 43.9627,40.2946 C43.9477,40.1176 43.1827,39.7856 42.9377,39.6686 C42.6857,39.5506 42.6287,39.0226 42.7537,38.9316 C42.8727,38.8376 42.6667,38.1676 42.5437,37.9456 C42.4247,37.7226 41.6257,37.5426 41.3567,37.5426 C41.0907,37.5426 40.8147,36.9246 40.6637,36.8346 C40.5087,36.7486 39.4837,36.6336 39.2337,36.7076 C38.9787,36.7826 38.5137,35.9806 38.0857,36.2256 C37.6567,36.4706 37.2157,35.9396 37.0227,35.8346 C36.8277,35.7266 35.8247,36.8046 35.8347,37.5596 C35.8457,38.3186 36.2257,39.0486 36.3827,39.0706 C36.5407,39.0906 36.3457,39.7746 36.1697,39.9706 C35.9997,40.1636 35.5757,39.7616 35.7377,39.5916 C35.8947,39.4216 35.3017,38.6286 35.0977,38.3066 C34.9517,38.0746 34.4297,37.8686 34.0777,37.7266 C33.8687,37.9496 33.6687,38.1796 33.4687,38.4096 C33.5477,38.6826 33.6387,39.0416 33.5497,39.3126 C33.3997,39.7746 33.0137,39.8446 32.9917,39.6446 C32.9797,39.5546 32.7877,39.4886 32.5587,39.4576 C32.3477,39.7076 32.1467,39.9676 31.9437,40.2206 C31.7427,40.4726 31.5437,40.7216 31.3477,40.9786 C31.1397,41.2506 30.9317,41.5276 30.7307,41.8056 C30.5477,42.0536 30.3697,42.3056 30.1927,42.5586 C29.9277,42.9346 29.6697,43.3146 29.4197,43.6966 C29.1747,44.0646 28.9357,44.4336 28.7037,44.8106 C28.5077,45.1316 28.3147,45.4586 28.1237,45.7856 C27.9947,46.0106 27.8637,46.2366 27.7337,46.4626 C27.5427,46.8046 27.3547,47.1506 27.1707,47.4986 C27.0667,47.6936 26.9657,47.8946 26.8647,48.0936 C26.4477,48.9116 26.0477,49.7436 25.6807,50.5866 C25.6707,50.6106 25.6587,50.6346 25.6487,50.6556 C25.4667,51.0726 25.2967,51.4946 25.1267,51.9176 C25.0627,52.0786 24.9997,52.2406 24.9367,52.3986 C24.7697,52.8346 24.6047,53.2686 24.4497,53.7116 C24.4257,53.7836 24.4017,53.8586 24.3747,53.9306 C23.8637,55.4066 23.4247,56.9136 23.0647,58.4506 C23.0397,58.5536 23.0137,58.6566 22.9917,58.7596 C22.6287,60.3506 22.3477,61.9706 22.1547,63.6166 C22.1547,63.6316 22.1527,63.6416 22.1497,63.6526 C22.3707,63.9096 22.6257,64.2116 22.6937,64.4276 C22.8197,64.8326 23.5257,65.0996 23.6597,65.1846 C23.7917,65.2646 23.8367,64.4046 23.7427,64.1826 C23.6517,63.9596 23.9137,63.8246 23.9077,63.9896 C23.9017,64.1546 24.5727,64.9096 24.7947,65.1846 C25.0137,65.4576 25.2397,67.2216 25.4537,67.6016 C25.6637,67.9806 27.6997,68.7666 28.3587,68.9026 C29.0137,69.0426 29.8417,69.7756 29.9707,69.9876 C30.0977,70.1986 30.9697,70.3046 31.1557,70.3906 C31.3437,70.4766 31.7907,71.0666 31.9767,71.1896 C32.1617,71.3156 32.3087,71.6646 32.3087,71.7596 C32.3087,71.8536 33.4597,72.2856 33.7397,72.5956 C34.0167,72.9046 34.4797,72.8186 34.5677,72.6886 C34.6527,72.5596 34.8797,73.3016 35.0007,73.5546 C35.1157,73.8136 35.1467,74.4426 35.0567,74.5436 C34.9647,74.6406 34.7997,75.7996 34.6047,76.0296 C34.4077,76.2626 34.0007,77.9446 34.0867,78.2746 C34.1767,78.6096 34.7167,79.2956 34.9517,79.3996 C35.1827,79.5006 35.0827,79.8586 34.9007,79.8846 C34.7167,79.9076 34.8017,81.5136 35.2377,81.7526 C35.6697,81.9886 36.0307,82.7016 35.9687,82.8246" id="Fill-73" fill="#72BCC5"></path>
            <path d="M41.4199,54.6263 L41.4159,54.6293" id="Fill-75" fill="#72BCC5"></path>
            <path d="M38.2529,35.1058 C38.8069,35.0128 39.7269,34.8578 39.7899,34.7038 C39.8369,34.5778 39.8439,34.1958 39.7409,34.0628 C39.8269,34.0688 39.9299,34.0728 40.0069,34.0728 C40.2179,34.0728 40.5679,32.9188 40.7899,32.6508 C41.0129,32.3808 42.2779,31.9818 42.5799,31.8008 C42.8809,31.6168 43.5419,30.9808 43.7969,30.9088 C44.0519,30.8338 44.4209,30.2388 44.3629,30.1208 C44.3099,30.0018 45.2219,29.4498 45.5709,29.3008 C45.9139,29.1538 46.0969,28.7468 45.9659,28.7298 C45.8829,28.7208 43.9469,29.7308 42.1779,30.7358 C42.1619,30.7488 42.1439,30.7608 42.1279,30.7738 C41.6219,31.1168 41.1219,31.4748 40.6289,31.8368 C40.2929,32.0848 39.9679,32.3438 39.6409,32.6018 C39.4679,32.7368 39.2929,32.8728 39.1229,33.0088 C38.7339,33.3258 38.3479,33.6478 37.9669,33.9728 C37.8899,34.0428 37.8079,34.1118 37.7279,34.1818 C37.3079,34.5508 36.8929,34.9228 36.4809,35.3068 C37.0339,35.2658 37.8899,35.1678 38.2529,35.1058" id="Fill-77" fill="#72BCC5"></path>
            <path d="M67.5439,57.7084 C67.3269,57.7004 67.3189,58.3624 67.5499,58.4354 C67.7129,58.4844 67.9219,58.0624 68.1199,57.7854 L68.1199,55.2054 C68.1009,55.1874 68.0829,55.1664 68.0659,55.1484 C67.7929,54.8714 67.8349,54.8654 68.1199,55.0794 L68.1199,39.2434 C67.8809,39.4634 67.6549,39.6694 67.5129,39.7844 C67.1339,40.0804 66.4709,41.3694 66.2609,41.6754 C66.0399,41.9804 65.7309,42.0384 65.6049,42.0464 C65.4789,42.0534 65.3729,42.3964 65.3729,42.5214 C65.3729,42.6484 64.2549,43.2324 64.1379,43.7424 C64.0189,44.2484 64.2479,45.4114 64.2479,45.8244 C64.2479,46.2364 64.6629,47.0554 64.9739,47.0674 C65.2809,47.0834 65.1229,47.7704 65.0409,47.9614 C64.9579,48.1564 65.2359,48.3674 65.2269,48.5304 C65.2209,48.6954 64.4399,48.9264 64.2009,49.0204 C63.9569,49.1064 63.5719,49.6504 63.5209,49.8524 C63.4759,50.0284 62.7289,50.1524 62.4829,50.3924 C62.5449,50.2204 62.6259,49.9844 62.6939,49.8524 C62.8369,49.5784 62.6409,49.1064 62.5229,49.0094 C62.4039,48.9114 62.3499,47.5644 62.1599,47.2764 C61.9739,46.9854 61.4999,46.4984 61.3859,46.4034 C61.2689,46.3094 61.4649,45.9534 61.5329,45.8034 C61.6009,45.6544 60.9049,45.5684 60.7149,45.6804 C60.5239,45.7904 60.4229,47.1214 60.3429,47.4864 C60.2639,47.8514 60.6869,48.4094 60.8039,48.4374 C60.9169,48.4654 60.8849,49.1204 60.6429,49.1414 C60.3959,49.1644 60.1739,50.1244 60.2969,50.3434 C60.4229,50.5624 60.1239,50.9894 59.9779,51.0884 C59.8359,51.1874 60.9169,51.1314 61.4119,51.1184 C61.9029,51.1044 62.2879,51.3264 62.2359,51.3674 C62.1849,51.4074 61.2919,51.5384 61.1309,51.7504 C60.9769,51.9634 60.3689,52.3694 60.2509,52.5314 C60.1329,52.6934 60.4509,53.0554 60.7069,53.0374 C60.9609,53.0214 61.2569,53.9254 61.4579,54.0904 C61.6539,54.2584 61.5829,54.7264 61.4959,54.8544 C61.4069,54.9814 60.1989,54.7684 59.7429,54.8834 C59.2839,54.9944 58.7059,55.9634 58.6639,56.3304 C58.6239,56.6964 58.7389,57.7464 58.8009,58.0384 C58.8569,58.3264 59.8169,58.5074 60.0099,58.6504 C60.2089,58.7904 61.1239,58.6544 61.3169,58.7414 C61.5029,58.8324 62.1249,57.8124 62.2479,57.3404 C62.3629,56.8634 63.3459,55.9964 63.5499,55.6714 C63.7529,55.3504 64.8089,55.3894 65.0659,55.2194 C65.3259,55.0534 65.1809,56.0204 65.3059,56.5504 C65.4299,57.0834 66.4399,57.0164 66.2899,56.5164 C66.1439,56.0204 66.3929,55.8034 66.4319,55.9824 C66.4759,56.1604 67.4429,56.5574 67.6289,56.8384 C67.8119,57.1194 67.7579,57.7144 67.5439,57.7084" id="Fill-79" fill="#72BCC5"></path>
            <path d="M68.1201,60.8402 C67.9201,60.7352 67.7351,60.6422 67.5931,60.5822 C66.9951,60.3302 66.5291,59.4232 66.4081,59.3072 C66.2841,59.1862 66.5121,58.8932 66.4521,58.7112 C66.3981,58.5322 65.0351,58.4942 64.6431,58.6412 C64.2441,58.7872 62.2081,59.0022 61.7251,59.2152 C61.2421,59.4312 60.5161,59.2022 60.2891,59.1602 C60.0621,59.1222 59.5221,59.7862 59.2481,59.9072 C58.9721,60.0282 58.6281,60.9712 58.4781,62.0072 L58.1061,62.7302 L57.8661,63.1902 C57.1931,63.7012 56.4491,65.4112 56.2281,65.7542 C56.0121,66.0992 55.8371,68.5592 55.8371,69.3872 C55.8371,70.2142 56.5561,71.9682 56.7641,72.4512 C56.9681,72.9322 58.2151,74.0052 58.6311,74.2602 C59.0491,74.5102 60.4051,74.5462 60.8521,74.5452 C61.2921,74.5432 61.8021,74.1212 61.9741,73.6062 L62.6231,73.6722 L62.9241,73.7012 C62.9391,74.0692 63.9001,74.3602 64.1381,74.4862 C64.3721,74.6152 65.0071,74.5172 65.1931,74.4632 C65.3831,74.4082 65.5941,76.1092 65.4581,76.6012 C65.3211,77.0902 65.7931,78.8152 65.9291,79.3322 C66.0701,79.8512 66.6601,81.2722 66.7201,81.7812 C66.7761,82.2912 66.3741,83.9822 66.3061,84.5742 C66.2381,85.1712 67.0451,86.8292 67.2591,87.3992 C67.4691,87.9702 67.6401,89.1962 67.6401,89.4822 C67.6401,89.6262 67.8701,90.1412 68.1201,90.7022 L68.1201,60.8402 Z" id="Fill-81" fill="#72BCC5"></path>
            <path d="M44.4316,101.4691 L45.0706,101.4691 C45.1836,100.7821 44.4006,100.8961 44.4316,101.4691" id="Fill-83" fill="#72BCC5"></path>
            <path d="M57.2558,38.1752 C57.5798,38.3042 58.1968,37.8562 57.9638,37.6832 C57.7238,37.5132 57.8478,37.5162 57.9638,37.5882 C58.0758,37.6602 58.1968,37.0172 58.0738,36.8962 C57.9498,36.7742 59.0248,35.9882 58.8348,35.2472 C58.6468,34.5062 59.1288,33.7432 59.4188,33.7362 C59.7078,33.7272 59.6228,32.8972 59.2758,32.8212 C58.9318,32.7442 59.2548,32.6672 59.3858,32.5482 C59.5138,32.4322 59.6778,31.6912 59.6048,31.5512 C59.5268,31.4062 60.1328,31.2472 60.2348,31.0772 C60.3458,30.9102 61.0388,30.5782 61.2838,30.5222 C61.5268,30.4682 61.6598,29.8162 61.3988,29.8472 C61.1308,29.8802 60.4398,29.7412 60.3198,29.6122 C60.2008,29.4882 59.1688,29.3752 58.8698,29.5012 C58.5708,29.6272 58.7758,28.7742 59.1898,28.6802 C59.6048,28.5882 59.2538,28.0002 58.8118,27.9982 C58.3698,27.9952 57.2778,27.8352 57.0218,27.8922 C56.7638,27.9482 56.2618,27.7142 56.0798,27.6862 C55.8968,27.6602 54.5848,28.0782 53.9648,28.0492 C53.3448,28.0212 51.8218,28.0822 51.4928,28.1752 C51.1598,28.2632 50.9208,28.9082 50.9698,29.1362 C51.0168,29.3672 49.4938,29.3632 49.0178,29.3682 C48.5358,29.3752 45.9848,29.9182 45.3188,30.2852 C44.6508,30.6512 44.1308,31.5882 44.3538,31.6082 C44.5728,31.6242 43.9808,32.1542 43.6248,32.2792 C43.2668,32.4042 42.4118,32.4572 42.2108,32.6592 C42.0098,32.8602 42.4248,32.9982 42.5028,33.1332 C42.5838,33.2672 42.8228,33.0152 43.0498,33.1462 C43.2698,33.2722 44.0168,33.3312 44.2118,33.4062 C44.4118,33.4862 43.5828,33.6452 43.1948,33.6712 C42.8028,33.6992 42.8908,34.4672 43.2078,34.5712 C43.5268,34.6782 44.3438,34.7912 44.4278,34.6572 C44.5128,34.5222 45.3998,34.8012 45.8008,34.8502 C46.1998,34.8922 46.5048,35.8962 46.6258,36.1122 C46.7508,36.3292 46.7768,37.0912 46.7458,37.3132 C46.7198,37.5342 47.4538,37.9382 47.5878,37.7962 C47.7168,37.6552 47.6808,38.1422 47.3848,38.1162 C47.0908,38.0922 47.2838,38.9402 47.6458,39.0632 C48.0088,39.1842 47.7608,39.7052 47.5528,39.8642 C47.3428,40.0222 47.4568,40.5222 47.2408,40.7012 C47.0288,40.8772 48.0008,42.5662 47.9958,43.4342 C47.9918,44.3022 48.5308,45.0102 48.7388,45.0102 C48.9468,45.0102 49.6598,45.1862 49.7538,45.3712 C49.8458,45.5572 50.1928,45.2422 50.3278,45.1002 C50.4628,44.9582 50.7558,44.5392 50.9728,44.1732 C51.1938,43.8052 51.6848,42.0642 51.7468,41.8762 C51.8148,41.6902 52.6308,41.8092 52.8188,41.7132 C53.0018,41.6152 53.5388,41.1962 53.6898,41.0682 C53.8428,40.9442 55.0068,40.4512 55.3268,40.2192 C55.6458,39.9922 56.1748,39.0042 56.4218,38.7932 C56.6708,38.5822 56.2948,38.6442 55.9848,38.4412 C55.6768,38.2372 55.8118,37.9882 55.9028,37.8932 C55.9908,37.7962 56.9318,38.0492 57.2558,38.1752" id="Fill-85" fill="#72BCC5"></path>
            <path d="M67.4277,30.4525 C67.0957,30.3395 66.4287,30.7055 66.5117,30.9125 C66.5977,31.1215 65.9697,30.6455 65.5277,30.8725 C65.0887,31.1035 64.9677,31.8735 65.1667,31.9745 C65.3727,32.0765 65.5177,32.6895 65.5227,32.8075 C65.5277,32.9275 66.3767,32.8425 66.5967,32.6645 C66.8147,32.4835 66.7817,33.2855 66.5687,33.5015 C66.3547,33.7185 66.6487,34.1525 66.8847,34.1885 C67.1187,34.2225 67.4407,34.7785 67.6827,34.7735 C67.8047,34.7695 67.9717,34.5295 68.1197,34.2525 L68.1197,31.4185 L68.1147,31.4175 C67.9267,31.3895 67.7517,30.5625 67.4277,30.4525" id="Fill-87" fill="#72BCC5"></path>
            <path d="M59.4121,49.7845 C59.6691,49.7435 59.8691,49.5345 59.8591,49.3215 C59.8461,49.1125 59.4831,48.1485 59.3371,48.1485 C59.1921,48.1485 58.9171,48.8545 58.7441,48.7855 C58.5711,48.7135 58.4761,49.3615 58.5141,49.6045 C58.5561,49.8515 59.1581,49.8305 59.4121,49.7845" id="Fill-89" fill="#72BCC5"></path>
            <path d="M58.4912,42.641 C58.5792,42.898 58.9032,43.063 59.2132,43.014 C59.5222,42.962 60.1422,42.643 60.3582,42.622 C60.5752,42.6 60.8122,41.512 60.6782,41.273 C60.5442,41.037 59.5192,41.065 59.2692,41.049 C59.0202,41.037 58.2552,40.782 58.1082,40.617 C57.9672,40.454 57.8532,41.247 57.6212,41.351 C57.3852,41.454 57.7342,41.606 57.8322,41.521 C57.9262,41.436 57.8252,41.93 57.7202,42.097 C57.6162,42.267 58.4012,42.386 58.4912,42.641" id="Fill-91" fill="#72BCC5"></path>
            <path d="M35.664,42.6635 C35.505,42.8105 35.643,43.5595 35.947,43.5825 C36.255,43.6035 36.744,42.4525 37.12,42.6825 C37.493,42.9145 37.748,43.0045 37.686,42.8815 C37.624,42.7605 36.556,42.2935 36.424,42.2075 C36.293,42.1285 35.827,42.5175 35.664,42.6635" id="Fill-93" fill="#72BCC5"></path>
            <path d="M39.5762,68.059 C39.5762,68.185 40.2432,68.167 40.3512,67.961 C40.4582,67.76 40.4012,67.593 40.2222,67.593 C40.0452,67.593 39.5762,67.932 39.5762,68.059" id="Fill-95" fill="#72BCC5"></path>
            <path d="M36.6094,66.9642 C36.9264,66.9022 36.7754,67.4182 36.8524,67.6032 C36.9284,67.7912 37.6954,67.9382 37.8474,68.0632 C38.0034,68.1872 38.3964,67.8292 38.7014,67.8672 C39.0064,67.9062 38.6004,66.8092 38.0884,66.8382 C37.5764,66.8732 37.1674,66.3752 37.0494,66.3152 C36.9234,66.2592 36.3314,65.8992 36.1604,65.7612 C35.9944,65.6252 34.6864,65.5092 34.2404,65.5092 C33.7964,65.5092 33.3084,65.9602 33.2414,66.1092 C33.1704,66.2592 33.9434,66.3602 34.1644,66.2422 C34.3854,66.1252 35.4214,66.3722 35.6304,66.6212 C35.8454,66.8692 36.2854,67.0242 36.6094,66.9642" id="Fill-97" fill="#72BCC5"></path>
            <path d="M35.2119,68.059 C35.2119,68.185 35.8859,68.106 36.0479,68.113 C36.2099,68.114 36.2049,68.004 36.0349,67.868 C35.8649,67.732 35.2119,67.932 35.2119,68.059" id="Fill-99" fill="#72BCC5"></path>
            <path d="M35.6875,64.5951 C35.5125,64.5261 35.3725,64.7991 35.3725,64.9321 C35.3725,65.0611 35.4665,65.1641 35.5865,65.1641 C35.7065,65.1641 35.8625,64.6641 35.6875,64.5951" id="Fill-101" fill="#72BCC5"></path>
            <path d="M37.0996,64.7025 C37.0396,64.5725 36.7516,64.4675 36.6656,64.4675 C36.5766,64.4675 36.5176,64.6905 36.5336,64.9615 C36.5476,65.2335 37.1586,64.8295 37.0996,64.7025" id="Fill-103" fill="#72BCC5"></path>
            <path d="M38.1162,66.2679 C38.3872,66.1349 38.4202,65.8099 38.2592,65.8289 C38.0962,65.8439 37.8002,65.3599 37.6242,65.2899 C37.4492,65.2209 37.3052,65.5809 37.3052,65.7389 C37.3052,65.8989 37.4052,66.0059 37.5242,65.9729 C37.6442,65.9449 37.8412,66.3949 38.1162,66.2679" id="Fill-105" fill="#72BCC5"></path>
            <path d="M39.79,34.1654 C39.744,34.1174 39.549,34.2604 39.638,34.3444 C39.678,34.4004 39.867,34.2634 39.79,34.1654" id="Fill-107" fill="#D1ECFB"></path>
            <path d="M44.9199,49.4447 C44.8809,49.3897 44.6859,49.5347 44.7589,49.6257 C44.8069,49.6787 45.0029,49.5347 44.9199,49.4447" id="Fill-109" fill="#D1ECFB"></path>
            <polygon id="Fill-111" fill="#DCE4E7" points="70.5859 4.4437 69.7129 9.7317 64.4259 10.6017 69.7129 11.4687 70.5859 16.7567 71.4509 11.4687 76.7379 10.6017 71.4509 9.7317"></polygon>
            <polygon id="Fill-113" fill="#DCE4E7" points="21.2334 24.2269 20.3634 29.5149 15.0764 30.3849 20.3634 31.2519 21.2334 36.5399 22.1004 31.2519 27.3874 30.3849 22.1004 29.5149"></polygon>
            <polygon id="Fill-115" fill="#CDD5D8" points="87.5381 0.0004 87.0871 2.7474 84.3421 3.2004 87.0871 3.6504 87.5381 6.3994 87.9891 3.6504 90.7361 3.2004 87.9891 2.7474"></polygon>
            <polygon id="Fill-117" fill="#CDD5D8" points="6.1572 82.267 5.2872 87.555 0.0002 88.426 5.2872 89.293 6.1572 94.581 7.0242 89.293 12.3112 88.426 7.0242 87.555"></polygon>
            <polygon id="Fill-119" fill="#DCE4E7" points="25.8633 102.0541 25.4123 104.8021 22.6673 105.2531 25.4123 105.7051 25.8633 108.4531 26.3143 105.7051 29.0623 105.2531 26.3143 104.8021"></polygon>
            <polygon id="Fill-121" fill="#A6DAE9" points="123.8769 78.0785 123.0049 83.3665 117.7149 84.2385 123.0049 85.1035 123.8769 90.3925 124.7429 85.1035 130.0299 84.2385 124.7429 83.3665"></polygon>
            <polygon id="Fill-123" fill="#FFFFFF" points="114.3496 107.4984 113.8966 110.2464 111.1516 110.6974 113.8966 111.1504 114.3496 113.8984 114.7996 111.1504 117.5476 110.6974 114.7996 110.2464"></polygon>
            <polygon id="Fill-125" fill="#DCE4E7" points="12.0439 51.8783 11.5909 54.6253 8.8459 55.0763 11.5909 55.5293 12.0439 58.2773 12.4929 55.5293 15.2399 55.0763 12.4929 54.6253"></polygon>
            <path d="M109.414,123.5062 C109.492,124.2632 110.102,124.8652 110.873,124.8652 L140.675,124.8652 C141.447,124.8652 142.057,124.2632 142.136,123.5062 L109.414,123.5062 Z" id="Fill-127" fill="#D6D6D6"></path>
            <path d="M83.1396,123.2386 L168.4116,123.2386 L170.6376,123.2386 L170.6376,69.0466 C170.6376,67.8246 169.6496,66.8146 168.4116,66.8146 L83.1396,66.8146 C81.9016,66.8146 80.9046,67.8246 80.9046,69.0466 L80.9046,123.2386 L83.1396,123.2386 Z" id="Fill-129" fill="#474F59"></path>
            <path d="M81.0976,123.0453 L170.4446,123.0453 L170.4446,69.0463 C170.4446,67.9223 169.5326,67.0083 168.4116,67.0083 L83.1396,67.0083 C82.0136,67.0083 81.0976,67.9223 81.0976,69.0463 L81.0976,123.0453 Z M170.6376,123.4323 L80.9046,123.4323 C80.7976,123.4323 80.7106,123.3453 80.7106,123.2383 L80.7106,69.0463 C80.7106,67.7093 81.8006,66.6213 83.1396,66.6213 L168.4116,66.6213 C169.7456,66.6213 170.8306,67.7093 170.8306,69.0463 L170.8306,123.2383 C170.8306,123.3453 170.7436,123.4323 170.6376,123.4323 Z" id="Fill-131" fill="#C0C0C0"></path>
            <mask id="mask-2" fill="white">
                <use xlink:href="#path-1"></use>
            </mask>
            <g id="Clip-134"></g>
            <polygon id="Fill-133" fill="#30363D" mask="url(#mask-2)" points="86.469 117.744 165.083 117.744 165.083 72.184 86.469 72.184"></polygon>
            <path d="M178.914,123.5062 L142.136,123.5062 C142.057,124.2632 141.447,124.8652 140.675,124.8652 L110.873,124.8652 C110.102,124.8652 109.492,124.2632 109.414,123.5062 L72.633,123.5062 C72.62,123.6862 72.576,123.8582 72.576,124.0432 L72.576,125.6602 C72.576,128.3322 74.738,128.4892 77.419,128.4892 L174.131,128.4892 C176.793,128.4892 178.975,128.3322 178.975,125.6602 L178.975,124.0432 C178.975,123.8582 178.932,123.6862 178.914,123.5062" id="Fill-135" fill="#EBEBEB" mask="url(#mask-2)"></path>
            <path d="M72.8056,123.6996 C72.8026,123.7186 72.8006,123.7356 72.7976,123.7546 C72.7846,123.8486 72.7696,123.9436 72.7696,124.0436 L72.7696,125.6606 C72.7696,128.1066 74.6966,128.2966 77.4186,128.2966 L174.1306,128.2966 C176.8536,128.2966 178.7816,128.1066 178.7816,125.6606 L178.7816,124.0436 C178.7816,123.9366 178.7646,123.8356 178.7486,123.7336 C178.7476,123.7216 178.7456,123.7116 178.7436,123.6996 L142.3016,123.6996 C142.1406,124.4856 141.4686,125.0586 140.6746,125.0586 L110.8726,125.0586 C110.0786,125.0586 109.4086,124.4856 109.2476,123.6996 L72.8056,123.6996 Z M174.1306,128.6826 L77.4186,128.6826 C75.0586,128.6826 72.3826,128.6826 72.3826,125.6606 L72.3826,124.0436 C72.3826,123.9256 72.3986,123.8116 72.4146,123.6986 C72.4246,123.6306 72.4346,123.5616 72.4396,123.4926 C72.4476,123.3906 72.5316,123.3126 72.6326,123.3126 L109.4136,123.3126 C109.5136,123.3126 109.5966,123.3876 109.6066,123.4866 C109.6766,124.1626 110.2206,124.6726 110.8726,124.6726 L140.6746,124.6726 C141.3266,124.6726 141.8726,124.1626 141.9436,123.4856 C141.9526,123.3876 142.0366,123.3126 142.1356,123.3126 L178.9136,123.3126 C179.0136,123.3126 179.0966,123.3876 179.1066,123.4876 C179.1136,123.5506 179.1216,123.6126 179.1316,123.6756 C179.1506,123.7956 179.1676,123.9166 179.1676,124.0436 L179.1676,125.6606 C179.1676,128.6826 176.3746,128.6826 174.1306,128.6826 Z" id="Fill-136" fill="#C0C0C0" mask="url(#mask-2)"></path>
            <polygon id="Fill-137" fill="#72BCC5" mask="url(#mask-2)" points="90.567 81.579 109.741 81.579 109.741 80.614 90.567 80.614"></polygon>
            <polygon id="Fill-138" fill="#D46F41" mask="url(#mask-2)" points="111.48 81.579 115.828 81.579 115.828 80.614 111.48 80.614"></polygon>
            <polygon id="Fill-139" fill="#D46F41" mask="url(#mask-2)" points="90.567 77.871 103.363 77.871 103.363 76.909 90.567 76.909"></polygon>
            <polygon id="Fill-140" fill="#DCE4E7" mask="url(#mask-2)" points="101.918 85.287 142.202 85.287 142.202 84.322 101.918 84.322"></polygon>
            <polygon id="Fill-141" fill="#EC8558" mask="url(#mask-2)" points="90.567 85.287 99.887 85.287 99.887 84.322 90.567 84.322"></polygon>
            <polygon id="Fill-142" fill="#DCE4E7" mask="url(#mask-2)" points="94.671 88.994 127.201 88.994 127.201 88.033 94.671 88.033"></polygon>
            <polygon id="Fill-143" fill="#D46F41" mask="url(#mask-2)" points="128.969 88.994 134.547 88.994 134.547 88.033 128.969 88.033"></polygon>
            <polygon id="Fill-144" fill="#EC8558" mask="url(#mask-2)" points="94.671 92.702 100.91 92.702 100.91 91.739 94.671 91.739"></polygon>
            <polygon id="Fill-145" fill="#EC8558" mask="url(#mask-2)" points="94.671 96.409 100.91 96.409 100.91 95.446 94.671 95.446"></polygon>
            <polygon id="Fill-146" fill="#72BCC5" mask="url(#mask-2)" points="102.678 92.702 136.675 92.702 136.675 91.739 102.678 91.739"></polygon>
            <polygon id="Fill-147" fill="#72BCC5" mask="url(#mask-2)" points="102.678 96.409 120.474 96.409 120.474 95.446 102.678 95.446"></polygon>
            <polygon id="Fill-148" fill="#DCE4E7" mask="url(#mask-2)" points="121.8 96.409 139.594 96.409 139.594 95.446 121.8 95.446"></polygon>
            <polygon id="Fill-149" fill="#72BCC5" mask="url(#mask-2)" points="102.495 100.116 126.07 100.116 126.07 99.153 102.495 99.153"></polygon>
            <polygon id="Fill-150" fill="#EC8558" mask="url(#mask-2)" points="90.567 100.116 101.046 100.116 101.046 99.153 90.567 99.153"></polygon>
            <polygon id="Fill-151" fill="#D46F41" mask="url(#mask-2)" points="128.235 100.116 131.531 100.116 131.531 99.153 128.235 99.153"></polygon>
            <polygon id="Fill-152" fill="#EC8558" mask="url(#mask-2)" points="94.671 103.987 100.91 103.987 100.91 103.024 94.671 103.024"></polygon>
            <polygon id="Fill-153" fill="#EC8558" mask="url(#mask-2)" points="94.671 107.694 100.91 107.694 100.91 106.732 94.671 106.732"></polygon>
            <polygon id="Fill-154" fill="#72BCC5" mask="url(#mask-2)" points="102.678 103.987 136.675 103.987 136.675 103.024 102.678 103.024"></polygon>
            <polygon id="Fill-155" fill="#72BCC5" mask="url(#mask-2)" points="102.678 107.694 120.474 107.694 120.474 106.732 102.678 106.732"></polygon>
            <polygon id="Fill-156" fill="#DCE4E7" mask="url(#mask-2)" points="121.8 107.694 139.594 107.694 139.594 106.732 121.8 106.732"></polygon>
            <polygon id="Fill-157" fill="#72BCC5" mask="url(#mask-2)" points="102.495 111.402 126.07 111.402 126.07 110.439 102.495 110.439"></polygon>
            <polygon id="Fill-158" fill="#EC8558" mask="url(#mask-2)" points="90.567 111.402 101.046 111.402 101.046 110.439 90.567 110.439"></polygon>
            <polygon id="Fill-159" fill="#D46F41" mask="url(#mask-2)" points="128.235 111.402 131.531 111.402 131.531 110.439 128.235 110.439"></polygon>
            <path d="M26.9014,122.7191 C21.4014,122.7191 17.1084,121.2161 14.5494,118.0381 C9.1554,111.3391 12.4894,98.3051 23.4664,83.1711 C23.6134,82.9711 23.8954,82.9281 24.0954,83.0721 C24.2974,83.2171 24.3414,83.4991 24.1954,83.7001 C13.4704,98.4851 10.1274,111.1111 15.2514,117.4741 C24.0354,128.3821 54.5274,118.4641 83.2204,95.3611 C106.3384,76.7451 120.7934,57.5851 128.8494,44.7891 C128.9834,44.5791 129.2594,44.5171 129.4704,44.6491 C129.6804,44.7811 129.7444,45.0591 129.6114,45.2701 C121.5184,58.1231 106.9994,77.3681 83.7854,96.0621 C62.8844,112.8921 40.9584,122.7191 26.9014,122.7191" id="Fill-160" fill="#FFFFFF" mask="url(#mask-2)"></path>
            <path d="M27.0898,117.2386 C23.0338,117.2386 19.8498,116.1506 17.8428,113.8506 C13.5218,108.8986 15.6438,98.6146 23.6648,85.6356 C23.7848,85.4416 24.0378,85.3846 24.2298,85.5036 C24.4218,85.6226 24.4828,85.8756 24.3618,86.0676 C16.6588,98.5326 14.4528,108.7176 18.4618,113.3116 C26.4828,122.5016 54.5548,111.1866 81.0358,88.0816 C101.8598,69.9126 115.0848,51.8786 122.5138,39.9496 C122.6338,39.7576 122.8898,39.6986 123.0788,39.8176 C123.2718,39.9376 123.3298,40.1906 123.2108,40.3836 C115.7528,52.3596 102.4748,70.4646 81.5748,88.7006 C61.2218,106.4596 39.8498,117.2386 27.0898,117.2386" id="Fill-161" fill="#FFFFFF" mask="url(#mask-2)"></path>
            <path d="M128.1777,39.5453 C133.0347,42.9993 135.0327,48.9733 133.6657,54.4233 C135.0897,53.4923 136.3667,52.2873 137.4107,50.8173 C141.9117,44.4893 140.4287,35.7133 134.1017,31.2123 C127.7747,26.7153 118.9957,28.1963 114.4977,34.5243 C113.4527,35.9943 112.7347,37.5983 112.3227,39.2483 C117.0227,36.1663 123.3217,36.0923 128.1777,39.5453" id="Fill-162" fill="#596273" mask="url(#mask-2)"></path>
            <path d="M136.7588,33.6732 L130.8278,42.0122 C133.7128,45.4732 134.7478,50.1092 133.6658,54.4232 C135.0898,53.4922 136.3668,52.2872 137.4108,50.8182 C141.1938,45.5002 140.7478,38.4562 136.7588,33.6732" id="Fill-163" fill="#474F59" mask="url(#mask-2)"></path>
            <path d="M127.1181,41.0355 C128.5271,42.0375 129.7281,43.2235 130.7151,44.5355 C135.3331,42.0495 139.9891,37.9185 143.8311,32.5175 C149.9301,23.9395 152.3321,14.4675 150.7221,7.8385 C143.9331,8.4945 135.7731,13.8755 129.6751,22.4515 C125.8351,27.8535 123.4631,33.6075 122.6311,38.7855 C124.1951,39.2875 125.7091,40.0325 127.1181,41.0355" id="Fill-164" fill="#72BCC5" mask="url(#mask-2)"></path>
            <path d="M150.7226,7.8383 C150.7016,7.8393 150.6776,7.8443 150.6576,7.8463 L127.0776,41.0083 C127.0906,41.0183 127.1046,41.0263 127.1186,41.0353 C128.5276,42.0373 129.7286,43.2233 130.7146,44.5353 C135.3326,42.0493 139.9896,37.9183 143.8306,32.5183 C149.9296,23.9403 152.3316,14.4673 150.7226,7.8383" id="Fill-165" fill="#5F9CA4" mask="url(#mask-2)"></path>
            <path d="M144.9502,15.9584 C146.7282,17.2234 148.4282,18.5254 150.0482,19.8484 C151.3072,15.4314 151.5542,11.2544 150.7222,7.8384 C147.2242,8.1764 143.3572,9.7794 139.6002,12.4184 C141.3812,13.5174 143.1692,14.6934 144.9502,15.9584" id="Fill-166" fill="#596273" mask="url(#mask-2)"></path>
            <path d="M150.6572,7.8441 L144.9072,15.9301 C144.9212,15.9401 144.9352,15.9481 144.9502,15.9581 C146.7282,17.2231 148.4282,18.5261 150.0482,19.8481 C151.3072,15.4311 151.5532,11.2541 150.7222,7.8381 C150.7012,7.8391 150.6782,7.8421 150.6572,7.8441" id="Fill-167" fill="#474F59" mask="url(#mask-2)"></path>
            <path d="M134.5957,30.5189 C132.6167,31.3949 129.8037,34.0439 127.2667,37.6119 C124.7297,41.1799 123.1517,44.7079 122.9737,46.8649 C124.9517,45.9889 127.7667,43.3389 130.3037,39.7719 C132.8417,36.2039 134.4177,32.6769 134.5957,30.5189" id="Fill-168" fill="#596273" mask="url(#mask-2)"></path>
            <path d="M134.5029,30.5648 L122.9859,46.7608 C122.9829,46.7938 122.9769,46.8328 122.9739,46.8648 C124.9519,45.9888 127.7669,43.3388 130.3039,39.7718 C132.8419,36.2038 134.4179,32.6768 134.5959,30.5188 C134.5649,30.5338 134.5309,30.5498 134.5029,30.5648" id="Fill-169" fill="#474F59" mask="url(#mask-2)"></path>
            <path d="M136.7519,27.4857 C134.5599,25.9247 134.0429,22.8737 135.6039,20.6807 C137.1629,18.4877 140.2149,17.9717 142.4069,19.5307 C144.6009,21.0907 145.1179,24.1427 143.5599,26.3367 C141.9979,28.5307 138.9459,29.0457 136.7519,27.4857" id="Fill-170" fill="#596273" mask="url(#mask-2)"></path>
            <path d="M141.5449,20.7455 C140.0199,19.6615 137.8989,20.0195 136.8149,21.5435 C135.7309,23.0685 136.0919,25.1875 137.6159,26.2715 C139.1389,27.3555 141.2589,26.9985 142.3449,25.4745 C143.4269,23.9495 143.0689,21.8285 141.5449,20.7455" id="Fill-171" fill="#FFFFFF" mask="url(#mask-2)"></path>
            <path d="M142.4072,19.5306 C142.3942,19.5216 142.3812,19.5136 142.3662,19.5046 L141.5052,20.7176 C141.5172,20.7256 141.5312,20.7356 141.5452,20.7456 C143.0692,21.8286 143.4272,23.9496 142.3452,25.4736 C141.2592,26.9986 139.1382,27.3556 137.6162,26.2716 C137.6012,26.2616 137.5892,26.2516 137.5762,26.2416 L136.7152,27.4546 C136.7282,27.4636 136.7392,27.4766 136.7522,27.4856 C138.9462,29.0456 141.9982,28.5306 143.5592,26.3366 C145.1182,24.1426 144.6002,21.0916 142.4072,19.5306" id="Fill-172" fill="#474F59" mask="url(#mask-2)"></path>
            <path d="M142.3447,25.474 C143.4267,23.95 143.0697,21.828 141.5447,20.745 C141.5317,20.736 141.5177,20.726 141.5047,20.717 L137.5757,26.242 C137.5887,26.251 137.6017,26.262 137.6157,26.272 C139.1387,27.356 141.2587,26.998 142.3447,25.474" id="Fill-173" fill="#D1ECFB" mask="url(#mask-2)"></path>
        </g>
    </g>
</svg>