<?xml version="1.0" encoding="UTF-8"?>
<svg width="188px" height="118px" viewBox="0 0 188 118" version="1.1" xmlns="http://www.w3.org/2000/svg" xmlns:xlink="http://www.w3.org/1999/xlink">
    <!-- Generator: Sketch 48 (47235) - http://www.bohemiancoding.com/sketch -->
    <title>Page 1</title>
    <desc>Created with Sketch.</desc>
    <defs>
        <polygon id="path-1" points="0 0.761 128.4619 0.761 128.4619 81.6689 0 81.6689"></polygon>
        <polygon id="path-3" points="0 118.239 187.079 118.239 187.079 1 0 1"></polygon>
    </defs>
    <g id="Page-1" stroke="none" stroke-width="1" fill="none" fill-rule="evenodd">
        <g transform="translate(0.000000, -1.000000)">
            <path d="M49.2959,88.3904 C47.9399,93.9414 46.5819,99.4924 45.2249,105.0424 L83.2399,105.0424 C81.8799,99.4924 80.5249,93.9414 79.1659,88.3904 L49.2959,88.3904 Z" id="Fill-1" fill="#CDD5D8"></path>
            <path d="M85.5889,104.7009 L42.8709,104.7009 C41.7889,104.7009 40.9089,105.2369 40.9089,105.8989 L40.9089,106.3479 L87.5529,106.3479 L87.5529,105.8989 C87.5529,105.2369 86.6749,104.7009 85.5889,104.7009" id="Fill-3" fill="#F6F2F1"></path>
            <path d="M0,81.9079 L0,91.0839 C0,92.8529 1.428,94.2829 3.196,94.2829 L125.264,94.2829 C127.029,94.2829 128.462,92.8529 128.462,91.0839 L128.462,81.9079 L0,81.9079 Z" id="Fill-5" fill="#F6F2F1"></path>
            <g id="Group-9" transform="translate(0.000000, 0.239000)">
                <mask id="mask-2" fill="white">
                    <use xlink:href="#path-1"></use>
                </mask>
                <g id="Clip-8"></g>
                <path d="M128.4619,81.6689 L128.4619,3.9589 C128.4619,2.1919 127.0289,0.7609 125.2639,0.7609 L3.1959,0.7609 C1.4279,0.7609 -0.0001,2.1919 -0.0001,3.9589 L-0.0001,81.6689 L128.4619,81.6689 Z" id="Fill-7" fill="#30363D" mask="url(#mask-2)"></path>
            </g>
            <mask id="mask-4" fill="white">
                <use xlink:href="#path-3"></use>
            </mask>
            <g id="Clip-11"></g>
            <polygon id="Fill-10" fill="#EC8558" mask="url(#mask-4)" points="5.261 76.602 123.2 76.602 123.2 5.997 5.261 5.997"></polygon>
            <path d="M12.082,42.365 C11.228,42.365 10.535,41.672 10.535,40.82 L10.535,13.262 C10.535,12.41 11.228,11.718 12.082,11.718 L45.346,11.718 C46.197,11.718 46.891,12.41 46.891,13.262 L46.891,40.82 C46.891,41.672 46.197,42.365 45.346,42.365 L12.082,42.365 Z" id="Fill-12" fill="#FFFFFF" mask="url(#mask-4)"></path>
            <path d="M45.3457,11.5232 L12.0817,11.5232 C11.1187,11.5232 10.3417,12.3012 10.3417,13.2622 L10.3417,40.8202 C10.3417,41.7812 11.1187,42.5592 12.0817,42.5592 L45.3457,42.5592 C46.3067,42.5592 47.0857,41.7812 47.0857,40.8202 L47.0857,13.2622 C47.0857,12.3012 46.3067,11.5232 45.3457,11.5232 M45.3457,11.9112 C46.0917,11.9112 46.6957,12.5172 46.6957,13.2622 L46.6957,40.8202 C46.6957,41.5642 46.0917,42.1702 45.3457,42.1702 L12.0817,42.1702 C11.3357,42.1702 10.7287,41.5642 10.7287,40.8202 L10.7287,13.2622 C10.7287,12.5172 11.3357,11.9112 12.0817,11.9112 L45.3457,11.9112" id="Fill-13" fill="#CDD5D8" mask="url(#mask-4)"></path>
            <path d="M45.3457,11.5232 L12.0817,11.5232 C11.1187,11.5232 10.3417,12.3012 10.3417,13.2622 L10.3417,16.5562 L47.0857,16.5562 L47.0857,13.2622 C47.0857,12.3012 46.3067,11.5232 45.3457,11.5232" id="Fill-14" fill="#CDD5D8" mask="url(#mask-4)"></path>
            <path d="M13.8984,14.0954 C13.8984,14.6294 13.4644,15.0654 12.9274,15.0654 C12.3924,15.0654 11.9594,14.6294 11.9594,14.0954 C11.9594,13.5604 12.3924,13.1244 12.9274,13.1244 C13.4644,13.1244 13.8984,13.5604 13.8984,14.0954" id="Fill-15" fill="#FFFFFF" mask="url(#mask-4)"></path>
            <path d="M16.6152,14.0954 C16.6152,14.6294 16.1812,15.0654 15.6462,15.0654 C15.1092,15.0654 14.6742,14.6294 14.6742,14.0954 C14.6742,13.5604 15.1092,13.1244 15.6462,13.1244 C16.1812,13.1244 16.6152,13.5604 16.6152,14.0954" id="Fill-16" fill="#FFFFFF" mask="url(#mask-4)"></path>
            <path d="M19.3301,14.0954 C19.3301,14.6294 18.8961,15.0654 18.3611,15.0654 C17.8241,15.0654 17.3911,14.6294 17.3911,14.0954 C17.3911,13.5604 17.8241,13.1244 18.3611,13.1244 C18.8961,13.1244 19.3301,13.5604 19.3301,14.0954" id="Fill-17" fill="#FFFFFF" mask="url(#mask-4)"></path>
            <polygon id="Fill-18" fill="#FFFFFF" mask="url(#mask-4)" points="22.047 14.968 44.551 14.968 44.551 13.221 22.047 13.221"></polygon>
            <polygon id="Fill-19" fill="#C6D6D7" mask="url(#mask-4)" points="12.316 19.96 20.3 19.96 20.3 19.24 12.316 19.24"></polygon>
            <polygon id="Fill-20" fill="#CDD5D8" mask="url(#mask-4)" points="12.316 35.19 20.882 35.19 20.882 34.47 12.316 34.47"></polygon>
            <polygon id="Fill-21" fill="#C6D6D7" mask="url(#mask-4)" points="12.316 37.293 44.224 37.293 44.224 36.573 12.316 36.573"></polygon>
            <polygon id="Fill-22" fill="#C6D6D7" mask="url(#mask-4)" points="12.316 39.394 44.224 39.394 44.224 38.674 12.316 38.674"></polygon>
            <polygon id="Fill-23" fill="#C6D6D7" mask="url(#mask-4)" points="39.312 19.96 44.386 19.96 44.386 19.24 39.312 19.24"></polygon>
            <polygon id="Fill-24" fill="#C6D6D7" mask="url(#mask-4)" points="32.91 19.96 37.984 19.96 37.984 19.24 32.91 19.24"></polygon>
            <polygon id="Fill-25" fill="#C6D6D7" mask="url(#mask-4)" points="26.508 19.96 31.582 19.96 31.582 19.24 26.508 19.24"></polygon>
            <polygon id="Fill-26" fill="#72BCC5" mask="url(#mask-4)" points="12.316 32.286 44.386 32.286 44.386 22.692 12.316 22.692"></polygon>
            <path d="M23.6953,69.2351 C22.8433,69.2351 22.1483,68.5411 22.1483,67.6891 L22.1483,40.1311 C22.1483,39.2801 22.8433,38.5881 23.6953,38.5881 L56.9593,38.5881 C57.8103,38.5881 58.5063,39.2801 58.5063,40.1311 L58.5063,67.6891 C58.5063,68.5411 57.8103,69.2351 56.9593,69.2351 L23.6953,69.2351 Z" id="Fill-27" fill="#FFFFFF" mask="url(#mask-4)"></path>
            <path d="M56.959,38.3933 L23.695,38.3933 C22.734,38.3933 21.955,39.1703 21.955,40.1303 L21.955,67.6893 C21.955,68.6503 22.734,69.4283 23.695,69.4283 L56.959,69.4283 C57.92,69.4283 58.699,68.6503 58.699,67.6893 L58.699,40.1303 C58.699,39.1703 57.92,38.3933 56.959,38.3933 M56.959,38.7813 C57.705,38.7813 58.311,39.3883 58.311,40.1303 L58.311,67.6893 C58.311,68.4353 57.705,69.0413 56.959,69.0413 L23.695,69.0413 C22.949,69.0413 22.344,68.4353 22.344,67.6893 L22.344,40.1303 C22.344,39.3883 22.949,38.7813 23.695,38.7813 L56.959,38.7813" id="Fill-28" fill="#CDD5D8" mask="url(#mask-4)"></path>
            <path d="M56.959,38.3933 L23.695,38.3933 C22.734,38.3933 21.955,39.1703 21.955,40.1303 L21.955,43.4273 L58.699,43.4273 L58.699,40.1303 C58.699,39.1703 57.92,38.3933 56.959,38.3933" id="Fill-29" fill="#CDD5D8" mask="url(#mask-4)"></path>
            <path d="M25.5117,40.9636 C25.5117,41.4996 25.0777,41.9346 24.5407,41.9346 C24.0077,41.9346 23.5707,41.4996 23.5707,40.9636 C23.5707,40.4286 24.0077,39.9936 24.5407,39.9936 C25.0777,39.9936 25.5117,40.4286 25.5117,40.9636" id="Fill-30" fill="#FFFFFF" mask="url(#mask-4)"></path>
            <path d="M28.2285,40.9636 C28.2285,41.4996 27.7925,41.9346 27.2575,41.9346 C26.7225,41.9346 26.2895,41.4996 26.2895,40.9636 C26.2895,40.4286 26.7225,39.9936 27.2575,39.9936 C27.7925,39.9936 28.2285,40.4286 28.2285,40.9636" id="Fill-31" fill="#FFFFFF" mask="url(#mask-4)"></path>
            <path d="M30.9433,40.9636 C30.9433,41.4996 30.5093,41.9346 29.9743,41.9346 C29.4373,41.9346 29.0043,41.4996 29.0043,40.9636 C29.0043,40.4286 29.4373,39.9936 29.9743,39.9936 C30.5093,39.9936 30.9433,40.4286 30.9433,40.9636" id="Fill-32" fill="#FFFFFF" mask="url(#mask-4)"></path>
            <polygon id="Fill-33" fill="#FFFFFF" mask="url(#mask-4)" points="33.66 41.838 56.164 41.838 56.164 40.092 33.66 40.092"></polygon>
            <polygon id="Fill-34" fill="#C6D6D7" mask="url(#mask-4)" points="23.928 46.83 31.914 46.83 31.914 46.111 23.928 46.111"></polygon>
            <polygon id="Fill-35" fill="#C6D6D7" mask="url(#mask-4)" points="50.926 46.83 55.998 46.83 55.998 46.111 50.926 46.111"></polygon>
            <polygon id="Fill-36" fill="#C6D6D7" mask="url(#mask-4)" points="44.523 46.83 49.597 46.83 49.597 46.111 44.523 46.111"></polygon>
            <polygon id="Fill-37" fill="#C6D6D7" mask="url(#mask-4)" points="38.121 46.83 43.195 46.83 43.195 46.111 38.121 46.111"></polygon>
            <polygon id="Fill-38" fill="#CDD5D8" mask="url(#mask-4)" points="23.928 56.534 30.262 56.534 30.262 49.562 23.928 49.562"></polygon>
            <path d="M24.146,56.316 L30.044,56.316 L30.044,49.779 L24.146,49.779 L24.146,56.316 Z M23.713,56.751 L30.479,56.751 L30.479,49.345 L23.713,49.345 L23.713,56.751 Z" id="Fill-39" fill="#FFFFFF" mask="url(#mask-4)"></path>
            <path d="M23.9277,56.7263 C23.8827,56.7263 23.8337,56.7103 23.7987,56.6773 C23.7187,56.6053 23.7127,56.4823 23.7847,56.4033 L30.1187,49.4313 C30.1917,49.3513 30.3127,49.3453 30.3927,49.4183 C30.4707,49.4893 30.4767,49.6123 30.4067,49.6913 L24.0727,56.6633 C24.0327,56.7053 23.9807,56.7263 23.9277,56.7263" id="Fill-40" fill="#FFFFFF" mask="url(#mask-4)"></path>
            <path d="M30.2617,56.7263 C30.2107,56.7263 30.1567,56.7053 30.1187,56.6633 L23.7847,49.6913 C23.7127,49.6123 23.7187,49.4893 23.7987,49.4183 C23.8767,49.3443 23.9997,49.3513 24.0727,49.4313 L30.4067,56.4033 C30.4767,56.4823 30.4707,56.6053 30.3927,56.6773 C30.3557,56.7103 30.3087,56.7263 30.2617,56.7263" id="Fill-41" fill="#FFFFFF" mask="url(#mask-4)"></path>
            <polygon id="Fill-42" fill="#CDD5D8" mask="url(#mask-4)" points="32.508 56.534 38.842 56.534 38.842 49.562 32.508 49.562"></polygon>
            <path d="M32.727,56.316 L38.625,56.316 L38.625,49.779 L32.727,49.779 L32.727,56.316 Z M32.291,56.751 L39.059,56.751 L39.059,49.345 L32.291,49.345 L32.291,56.751 Z" id="Fill-43" fill="#FFFFFF" mask="url(#mask-4)"></path>
            <path d="M32.5078,56.7263 C32.4608,56.7263 32.4138,56.7103 32.3788,56.6773 C32.2988,56.6053 32.2908,56.4823 32.3648,56.4033 L38.6968,49.4313 C38.7698,49.3513 38.8928,49.3453 38.9728,49.4183 C39.0528,49.4893 39.0568,49.6123 38.9848,49.6913 L32.6528,56.6633 C32.6128,56.7053 32.5608,56.7263 32.5078,56.7263" id="Fill-44" fill="#FFFFFF" mask="url(#mask-4)"></path>
            <path d="M38.8418,56.7263 C38.7868,56.7263 38.7368,56.7053 38.6968,56.6633 L32.3648,49.6913 C32.2908,49.6123 32.2988,49.4893 32.3788,49.4183 C32.4568,49.3443 32.5798,49.3513 32.6528,49.4313 L38.9848,56.4033 C39.0568,56.4823 39.0528,56.6053 38.9728,56.6773 C38.9338,56.7103 38.8888,56.7263 38.8418,56.7263" id="Fill-45" fill="#FFFFFF" mask="url(#mask-4)"></path>
            <polygon id="Fill-46" fill="#72BCC5" mask="url(#mask-4)" points="41.088 56.534 47.42 56.534 47.42 49.562 41.088 49.562"></polygon>
            <polygon id="Fill-47" fill="#CDD5D8" mask="url(#mask-4)" points="49.666 56.534 55.998 56.534 55.998 49.562 49.666 49.562"></polygon>
            <path d="M49.883,56.316 L55.781,56.316 L55.781,49.779 L49.883,49.779 L49.883,56.316 Z M49.447,56.751 L56.215,56.751 L56.215,49.345 L49.447,49.345 L49.447,56.751 Z" id="Fill-48" fill="#FFFFFF" mask="url(#mask-4)"></path>
            <path d="M49.666,56.7263 C49.617,56.7263 49.572,56.7103 49.535,56.6773 C49.457,56.6053 49.451,56.4823 49.521,56.4033 L55.853,49.4313 C55.928,49.3513 56.051,49.3453 56.129,49.4183 C56.209,49.4893 56.215,49.6123 56.143,49.6913 L49.809,56.6633 C49.771,56.7053 49.719,56.7263 49.666,56.7263" id="Fill-49" fill="#FFFFFF" mask="url(#mask-4)"></path>
            <path d="M55.998,56.7263 C55.947,56.7263 55.894,56.7053 55.853,56.6633 L49.521,49.6913 C49.451,49.6123 49.457,49.4893 49.535,49.4183 C49.613,49.3443 49.736,49.3513 49.809,49.4313 L56.143,56.4033 C56.215,56.4823 56.209,56.6053 56.129,56.6773 C56.092,56.7103 56.045,56.7263 55.998,56.7263" id="Fill-50" fill="#FFFFFF" mask="url(#mask-4)"></path>
            <polygon id="Fill-51" fill="#CDD5D8" mask="url(#mask-4)" points="23.928 65.458 30.262 65.458 30.262 58.486 23.928 58.486"></polygon>
            <path d="M24.146,65.24 L30.044,65.24 L30.044,58.703 L24.146,58.703 L24.146,65.24 Z M23.713,65.675 L30.479,65.675 L30.479,58.27 L23.713,58.27 L23.713,65.675 Z" id="Fill-52" fill="#FFFFFF" mask="url(#mask-4)"></path>
            <path d="M23.9277,65.6511 C23.8827,65.6511 23.8337,65.6341 23.7987,65.5991 C23.7187,65.5291 23.7127,65.4061 23.7847,65.3261 L30.1187,58.3551 C30.1917,58.2761 30.3127,58.2701 30.3927,58.3411 C30.4707,58.4141 30.4767,58.5371 30.4067,58.6171 L24.0727,65.5881 C24.0327,65.6301 23.9807,65.6511 23.9277,65.6511" id="Fill-53" fill="#FFFFFF" mask="url(#mask-4)"></path>
            <path d="M30.2617,65.6511 C30.2107,65.6511 30.1567,65.6301 30.1187,65.5881 L23.7847,58.6171 C23.7127,58.5371 23.7187,58.4141 23.7987,58.3411 C23.8767,58.2701 23.9997,58.2751 24.0727,58.3551 L30.4067,65.3261 C30.4767,65.4061 30.4707,65.5291 30.3927,65.5991 C30.3557,65.6341 30.3087,65.6511 30.2617,65.6511" id="Fill-54" fill="#FFFFFF" mask="url(#mask-4)"></path>
            <polygon id="Fill-55" fill="#CDD5D8" mask="url(#mask-4)" points="32.508 65.458 38.842 65.458 38.842 58.486 32.508 58.486"></polygon>
            <path d="M32.727,65.24 L38.625,65.24 L38.625,58.703 L32.727,58.703 L32.727,65.24 Z M32.291,65.675 L39.059,65.675 L39.059,58.27 L32.291,58.27 L32.291,65.675 Z" id="Fill-56" fill="#FFFFFF" mask="url(#mask-4)"></path>
            <path d="M32.5078,65.6511 C32.4608,65.6511 32.4138,65.6341 32.3788,65.5991 C32.2988,65.5291 32.2908,65.4061 32.3648,65.3261 L38.6968,58.3551 C38.7698,58.2761 38.8928,58.2701 38.9728,58.3411 C39.0528,58.4141 39.0568,58.5371 38.9848,58.6171 L32.6528,65.5881 C32.6128,65.6301 32.5608,65.6511 32.5078,65.6511" id="Fill-57" fill="#FFFFFF" mask="url(#mask-4)"></path>
            <path d="M38.8418,65.6511 C38.7868,65.6511 38.7368,65.6301 38.6968,65.5881 L32.3648,58.6171 C32.2908,58.5371 32.2988,58.4141 32.3788,58.3411 C32.4568,58.2701 32.5798,58.2751 32.6528,58.3551 L38.9848,65.3261 C39.0568,65.4061 39.0528,65.5291 38.9728,65.5991 C38.9338,65.6341 38.8888,65.6511 38.8418,65.6511" id="Fill-58" fill="#FFFFFF" mask="url(#mask-4)"></path>
            <polygon id="Fill-59" fill="#CDD5D8" mask="url(#mask-4)" points="41.088 65.458 47.42 65.458 47.42 58.486 41.088 58.486"></polygon>
            <path d="M41.305,65.24 L47.203,65.24 L47.203,58.703 L41.305,58.703 L41.305,65.24 Z M40.869,65.675 L47.637,65.675 L47.637,58.27 L40.869,58.27 L40.869,65.675 Z" id="Fill-60" fill="#FFFFFF" mask="url(#mask-4)"></path>
            <path d="M41.0879,65.6511 C41.0409,65.6511 40.9939,65.6341 40.9569,65.5991 C40.8769,65.5291 40.8729,65.4061 40.9429,65.3261 L47.2749,58.3551 C47.3479,58.2761 47.4729,58.2701 47.5509,58.3411 C47.6289,58.4141 47.6369,58.5371 47.5649,58.6171 L41.2309,65.5881 C41.1929,65.6301 41.1409,65.6511 41.0879,65.6511" id="Fill-61" fill="#FFFFFF" mask="url(#mask-4)"></path>
            <path d="M47.4199,65.6511 C47.3669,65.6511 47.3149,65.6301 47.2749,65.5881 L40.9429,58.6171 C40.8729,58.5371 40.8769,58.4141 40.9569,58.3411 C41.0349,58.2701 41.1579,58.2751 41.2309,58.3551 L47.5649,65.3261 C47.6369,65.4061 47.6289,65.5291 47.5509,65.5991 C47.5139,65.6341 47.4689,65.6511 47.4199,65.6511" id="Fill-62" fill="#FFFFFF" mask="url(#mask-4)"></path>
            <polygon id="Fill-63" fill="#CDD5D8" mask="url(#mask-4)" points="49.666 65.458 55.998 65.458 55.998 58.486 49.666 58.486"></polygon>
            <path d="M49.883,65.24 L55.781,65.24 L55.781,58.703 L49.883,58.703 L49.883,65.24 Z M49.447,65.675 L56.215,65.675 L56.215,58.27 L49.447,58.27 L49.447,65.675 Z" id="Fill-64" fill="#FFFFFF" mask="url(#mask-4)"></path>
            <path d="M49.666,65.6511 C49.617,65.6511 49.572,65.6341 49.535,65.5991 C49.457,65.5291 49.451,65.4061 49.521,65.3261 L55.853,58.3551 C55.928,58.2761 56.051,58.2701 56.129,58.3411 C56.209,58.4141 56.215,58.5371 56.143,58.6171 L49.809,65.5881 C49.771,65.6301 49.719,65.6511 49.666,65.6511" id="Fill-65" fill="#FFFFFF" mask="url(#mask-4)"></path>
            <path d="M55.998,65.6511 C55.947,65.6511 55.894,65.6301 55.853,65.5881 L49.521,58.6171 C49.451,58.5371 49.457,58.4141 49.535,58.3411 C49.613,58.2701 49.736,58.2751 49.809,58.3551 L56.143,65.3261 C56.215,65.4061 56.209,65.5291 56.129,65.5991 C56.092,65.6341 56.045,65.6511 55.998,65.6511" id="Fill-66" fill="#FFFFFF" mask="url(#mask-4)"></path>
            <polygon id="Fill-67" fill="#FFFFFF" mask="url(#mask-4)" points="46.164 52.8367 42.719 51.9367 43.619 55.3827 44.217 54.2907 45.295 55.3707 46.152 54.5147 45.074 53.4357"></polygon>
            <path d="M54.914,64.0046 C53.428,64.0046 52.219,62.7956 52.219,61.3096 L52.219,22.0266 C52.219,20.5426 53.428,19.3326 54.914,19.3326 L110.176,19.3326 C111.662,19.3326 112.871,20.5426 112.871,22.0266 L112.871,61.3096 C112.871,62.7956 111.662,64.0046 110.176,64.0046 L54.914,64.0046 Z" id="Fill-68" fill="#FFFFFF" mask="url(#mask-4)"></path>
            <path d="M110.1758,19.1384 L54.9138,19.1384 C53.3188,19.1384 52.0258,20.4324 52.0258,22.0274 L52.0258,61.3094 C52.0258,62.9044 53.3188,64.1974 54.9138,64.1974 L110.1758,64.1974 C111.7698,64.1974 113.0648,62.9044 113.0648,61.3094 L113.0648,22.0274 C113.0648,20.4324 111.7698,19.1384 110.1758,19.1384 M110.1758,19.5274 C111.5528,19.5274 112.6778,20.6494 112.6778,22.0274 L112.6778,61.3094 C112.6778,62.6874 111.5528,63.8104 110.1758,63.8104 L54.9138,63.8104 C53.5348,63.8104 52.4118,62.6874 52.4118,61.3094 L52.4118,22.0274 C52.4118,20.6494 53.5348,19.5274 54.9138,19.5274 L110.1758,19.5274" id="Fill-69" fill="#CDD5D8" mask="url(#mask-4)"></path>
            <polygon id="Fill-70" fill="#C6D6D7" mask="url(#mask-4)" points="55.305 27.938 68.569 27.938 68.569 26.744 55.305 26.744"></polygon>
            <polygon id="Fill-71" fill="#C6D6D7" mask="url(#mask-4)" points="100.15 27.938 108.58 27.938 108.58 26.744 100.15 26.744"></polygon>
            <polygon id="Fill-72" fill="#C6D6D7" mask="url(#mask-4)" points="89.516 27.938 97.944 27.938 97.944 26.744 89.516 26.744"></polygon>
            <polygon id="Fill-73" fill="#C6D6D7" mask="url(#mask-4)" points="78.881 27.938 87.309 27.938 87.309 26.744 78.881 26.744"></polygon>
            <polygon id="Fill-74" fill="#72BCC5" mask="url(#mask-4)" points="55.305 58.883 79.289 58.883 79.289 32.479 55.305 32.479"></polygon>
            <path d="M55.625,58.56 L78.969,58.56 L78.969,32.798 L55.625,32.798 L55.625,58.56 Z M54.982,59.205 L79.613,59.205 L79.613,32.155 L54.982,32.155 L54.982,59.205 Z" id="Fill-75" fill="#FFFFFF" mask="url(#mask-4)"></path>
            <path d="M56.0312,58.5603 L78.9682,58.5603 L78.9682,33.3123 L56.0312,58.5603 Z M79.2892,59.2053 L55.3042,59.2053 C55.1762,59.2053 55.0602,59.1293 55.0082,59.0133 C54.9572,58.8963 54.9802,58.7603 55.0642,58.6663 L79.0512,32.2593 C79.1402,32.1633 79.2832,32.1273 79.4062,32.1763 C79.5312,32.2243 79.6132,32.3433 79.6132,32.4783 L79.6132,58.8823 C79.6132,59.0603 79.4672,59.2053 79.2892,59.2053 Z" id="Fill-76" fill="#FFFFFF" mask="url(#mask-4)"></path>
            <path d="M55.625,58.5603 L78.562,58.5603 L55.625,33.3123 L55.625,58.5603 Z M79.289,59.2053 L55.305,59.2053 C55.127,59.2053 54.982,59.0603 54.982,58.8823 L54.982,32.4783 C54.982,32.3433 55.063,32.2243 55.188,32.1763 C55.311,32.1273 55.453,32.1633 55.543,32.2593 L79.529,58.6663 C79.615,58.7603 79.637,58.8963 79.584,59.0133 C79.533,59.1293 79.418,59.2053 79.289,59.2053 Z" id="Fill-77" fill="#FFFFFF" mask="url(#mask-4)"></path>
            <polygon id="Fill-78" fill="#CDD5D8" mask="url(#mask-4)" points="82.803 34.922 97.035 34.922 97.035 32.98 82.803 32.98"></polygon>
            <polygon id="Fill-79" fill="#C6D6D7" mask="url(#mask-4)" points="82.803 39.114 108.528 39.114 108.528 37.919 82.803 37.919"></polygon>
            <polygon id="Fill-80" fill="#C6D6D7" mask="url(#mask-4)" points="82.803 42.785 104.664 42.785 104.664 41.588 82.803 41.588"></polygon>
            <polygon id="Fill-81" fill="#C6D6D7" mask="url(#mask-4)" points="82.803 46.455 107.03 46.455 107.03 45.26 82.803 45.26"></polygon>
            <polygon id="Fill-82" fill="#C6D6D7" mask="url(#mask-4)" points="82.803 50.125 101.657 50.125 101.657 48.93 82.803 48.93"></polygon>
            <polygon id="Fill-83" fill="#EC8558" mask="url(#mask-4)" points="82.803 57.076 91.129 57.076 91.129 53.583 82.803 53.583"></polygon>
            <polygon id="Fill-84" fill="#FFFFFF" mask="url(#mask-4)" points="84.201 55.926 89.732 55.926 89.732 54.732 84.201 54.732"></polygon>
            <path d="M111.3262,19.1384 L53.7632,19.1384 C52.8032,19.1384 52.0252,19.9174 52.0252,20.8774 L52.0252,24.1734 L113.0642,24.1734 L113.0642,20.8774 C113.0642,19.9174 112.2852,19.1384 111.3262,19.1384" id="Fill-85" fill="#CDD5D8" mask="url(#mask-4)"></path>
            <path d="M55.582,21.7107 C55.582,22.2467 55.146,22.6807 54.611,22.6807 C54.076,22.6807 53.641,22.2467 53.641,21.7107 C53.641,21.1757 54.076,20.7397 54.611,20.7397 C55.146,20.7397 55.582,21.1757 55.582,21.7107" id="Fill-86" fill="#FFFFFF" mask="url(#mask-4)"></path>
            <path d="M58.2969,21.7107 C58.2969,22.2467 57.8629,22.6807 57.3279,22.6807 C56.7909,22.6807 56.3579,22.2467 56.3579,21.7107 C56.3579,21.1757 56.7909,20.7397 57.3279,20.7397 C57.8629,20.7397 58.2969,21.1757 58.2969,21.7107" id="Fill-87" fill="#FFFFFF" mask="url(#mask-4)"></path>
            <path d="M61.0137,21.7107 C61.0137,22.2467 60.5797,22.6807 60.0427,22.6807 C59.5077,22.6807 59.0747,22.2467 59.0747,21.7107 C59.0747,21.1757 59.5077,20.7397 60.0427,20.7397 C60.5797,20.7397 61.0137,21.1757 61.0137,21.7107" id="Fill-88" fill="#FFFFFF" mask="url(#mask-4)"></path>
            <polygon id="Fill-89" fill="#FFFFFF" mask="url(#mask-4)" points="63.726 22.584 110.529 22.584 110.529 20.838 63.726 20.838"></polygon>
            <path d="M122.1816,113.4226 C122.2546,114.1266 122.8226,114.6876 123.5396,114.6876 L151.2656,114.6876 C151.9846,114.6876 152.5506,114.1266 152.6256,113.4226 L122.1816,113.4226 Z" id="Fill-90" fill="#D6D6D6" mask="url(#mask-4)"></path>
            <path d="M97.7363,113.1736 L177.0723,113.1736 L179.1433,113.1736 L179.1433,62.7546 C179.1433,61.6176 178.2223,60.6786 177.0723,60.6786 L97.7363,60.6786 C96.5843,60.6786 95.6563,61.6176 95.6563,62.7546 L95.6563,113.1736 L97.7363,113.1736 Z" id="Fill-91" fill="#474F59" mask="url(#mask-4)"></path>
            <path d="M95.8359,112.9939 L178.9639,112.9939 L178.9639,62.7549 C178.9639,61.7089 178.1149,60.8579 177.0719,60.8579 L97.7359,60.8579 C96.6889,60.8579 95.8359,61.7089 95.8359,62.7549 L95.8359,112.9939 Z M179.1439,113.3529 L95.6559,113.3529 C95.5569,113.3529 95.4769,113.2729 95.4769,113.1739 L95.4769,62.7549 C95.4769,61.5109 96.4899,60.4989 97.7359,60.4989 L177.0719,60.4989 C178.3139,60.4989 179.3229,61.5109 179.3229,62.7549 L179.3229,113.1739 C179.3229,113.2729 179.2429,113.3529 179.1439,113.3529 Z" id="Fill-92" fill="#C0C0C0" mask="url(#mask-4)"></path>
            <polygon id="Fill-93" fill="#30363D" mask="url(#mask-4)" points="100.834 108.062 173.975 108.062 173.975 65.674 100.834 65.674"></polygon>
            <path d="M186.8437,113.4226 L152.6257,113.4226 C152.5507,114.1266 151.9847,114.6876 151.2657,114.6876 L123.5397,114.6876 C122.8227,114.6876 122.2547,114.1266 122.1817,113.4226 L87.9607,113.4226 C87.9487,113.5896 87.9077,113.7496 87.9077,113.9226 L87.9077,115.4276 C87.9077,117.9126 89.9197,118.0596 92.4137,118.0596 L182.3927,118.0596 C184.8697,118.0596 186.8997,117.9126 186.8997,115.4276 L186.8997,113.9226 C186.8997,113.7496 186.8597,113.5896 186.8437,113.4226" id="Fill-94" fill="#EBEBEB" mask="url(#mask-4)"></path>
            <path d="M88.1221,113.6023 C88.1191,113.6203 88.1171,113.6363 88.1141,113.6543 C88.1011,113.7423 88.0881,113.8303 88.0881,113.9223 L88.0881,115.4273 C88.0881,117.7043 89.8811,117.8793 92.4141,117.8793 L182.3931,117.8793 C184.9261,117.8793 186.7201,117.7043 186.7201,115.4273 L186.7201,113.9223 C186.7201,113.8243 186.7041,113.7303 186.6901,113.6363 C186.6881,113.6253 186.6861,113.6143 186.6851,113.6023 L152.7801,113.6023 C152.6291,114.3333 152.0031,114.8673 151.2661,114.8673 L123.5401,114.8673 C122.8021,114.8673 122.1771,114.3333 122.0271,113.6023 L88.1221,113.6023 Z M182.3931,118.2393 L92.4141,118.2393 C90.2181,118.2393 87.7281,118.2393 87.7281,115.4273 L87.7281,113.9223 C87.7281,113.8123 87.7431,113.7063 87.7581,113.6023 C87.7681,113.5383 87.7761,113.4743 87.7811,113.4103 C87.7881,113.3153 87.8661,113.2433 87.9611,113.2433 L122.1821,113.2433 C122.2731,113.2433 122.3511,113.3123 122.3601,113.4043 C122.4261,114.0333 122.9341,114.5073 123.5401,114.5073 L151.2661,114.5073 C151.8721,114.5073 152.3801,114.0333 152.4471,113.4033 C152.4571,113.3123 152.5341,113.2433 152.6261,113.2433 L186.8441,113.2433 C186.9361,113.2433 187.0151,113.3133 187.0231,113.4063 C187.0281,113.4653 187.0371,113.5243 187.0471,113.5823 C187.0631,113.6943 187.0791,113.8053 187.0791,113.9223 L187.0791,115.4273 C187.0791,118.2393 184.4801,118.2393 182.3931,118.2393 Z" id="Fill-95" fill="#C0C0C0" mask="url(#mask-4)"></path>
            <polygon id="Fill-96" fill="#72BCC5" mask="url(#mask-4)" points="104.647 74.415 122.486 74.415 122.486 73.518 104.647 73.518"></polygon>
            <polygon id="Fill-97" fill="#D46F41" mask="url(#mask-4)" points="124.103 74.415 128.149 74.415 128.149 73.518 124.103 73.518"></polygon>
            <polygon id="Fill-98" fill="#D46F41" mask="url(#mask-4)" points="104.647 70.966 116.553 70.966 116.553 70.07 104.647 70.07"></polygon>
            <polygon id="Fill-99" fill="#DCE4E7" mask="url(#mask-4)" points="115.207 77.865 152.687 77.865 152.687 76.968 115.207 76.968"></polygon>
            <polygon id="Fill-100" fill="#EC8558" mask="url(#mask-4)" points="104.647 77.865 113.318 77.865 113.318 76.968 104.647 76.968"></polygon>
            <polygon id="Fill-101" fill="#DCE4E7" mask="url(#mask-4)" points="108.465 81.313 138.732 81.313 138.732 80.418 108.465 80.418"></polygon>
            <polygon id="Fill-102" fill="#D46F41" mask="url(#mask-4)" points="140.376 81.313 145.564 81.313 145.564 80.418 140.376 80.418"></polygon>
            <polygon id="Fill-103" fill="#EC8558" mask="url(#mask-4)" points="108.465 84.762 114.271 84.762 114.271 83.866 108.465 83.866"></polygon>
            <polygon id="Fill-104" fill="#EC8558" mask="url(#mask-4)" points="108.465 88.212 114.271 88.212 114.271 87.316 108.465 87.316"></polygon>
            <polygon id="Fill-105" fill="#72BCC5" mask="url(#mask-4)" points="115.916 84.762 147.545 84.762 147.545 83.866 115.916 83.866"></polygon>
            <polygon id="Fill-106" fill="#72BCC5" mask="url(#mask-4)" points="115.916 88.212 132.471 88.212 132.471 87.316 115.916 87.316"></polygon>
            <polygon id="Fill-107" fill="#DCE4E7" mask="url(#mask-4)" points="133.706 88.212 150.26 88.212 150.26 87.316 133.706 87.316"></polygon>
            <polygon id="Fill-108" fill="#72BCC5" mask="url(#mask-4)" points="115.745 91.661 137.678 91.661 137.678 90.765 115.745 90.765"></polygon>
            <polygon id="Fill-109" fill="#EC8558" mask="url(#mask-4)" points="104.647 91.661 114.396 91.661 114.396 90.765 104.647 90.765"></polygon>
            <polygon id="Fill-110" fill="#D46F41" mask="url(#mask-4)" points="139.694 91.661 142.76 91.661 142.76 90.765 139.694 90.765"></polygon>
            <polygon id="Fill-111" fill="#EC8558" mask="url(#mask-4)" points="108.465 95.262 114.271 95.262 114.271 94.366 108.465 94.366"></polygon>
            <polygon id="Fill-112" fill="#EC8558" mask="url(#mask-4)" points="108.465 98.712 114.271 98.712 114.271 97.816 108.465 97.816"></polygon>
            <polygon id="Fill-113" fill="#72BCC5" mask="url(#mask-4)" points="115.916 95.262 147.545 95.262 147.545 94.366 115.916 94.366"></polygon>
            <polygon id="Fill-114" fill="#72BCC5" mask="url(#mask-4)" points="115.916 98.712 132.471 98.712 132.471 97.816 115.916 97.816"></polygon>
            <polygon id="Fill-115" fill="#DCE4E7" mask="url(#mask-4)" points="133.706 98.712 150.26 98.712 150.26 97.816 133.706 97.816"></polygon>
            <polygon id="Fill-116" fill="#72BCC5" mask="url(#mask-4)" points="115.745 102.161 137.678 102.161 137.678 101.265 115.745 101.265"></polygon>
            <polygon id="Fill-117" fill="#EC8558" mask="url(#mask-4)" points="104.647 102.161 114.396 102.161 114.396 101.265 104.647 101.265"></polygon>
            <polygon id="Fill-118" fill="#D46F41" mask="url(#mask-4)" points="139.694 102.161 142.76 102.161 142.76 101.265 139.694 101.265"></polygon>
        </g>
    </g>
</svg>